<?xml version="1.0" encoding="UTF-8" standalone="no"?>
<!DOCTYPE svg PUBLIC "-//W3C//DTD SVG 1.1//EN" "http://www.w3.org/Graphics/SVG/1.1/DTD/svg11.dtd">
<svg width="100%" height="100%" viewBox="0 0 1728 3659" version="1.1" xmlns="http://www.w3.org/2000/svg" xmlns:xlink="http://www.w3.org/1999/xlink" xml:space="preserve" xmlns:serif="http://www.serif.com/" style="fill-rule:evenodd;clip-rule:evenodd;stroke-linejoin:round;stroke-miterlimit:2;">
    <g transform="matrix(1,0,0,1,-1149.474001,-178.071777)">
        <g>
            <path d="M2145,2485C2145,2559.56 2064.409,2620 1965,2620C1865.59,2620 1785,2559.56 1785,2485C1785,2410.44 1865.59,2350 1965,2350C2064.409,2350 2145,2410.44 2145,2485Z" style="fill:white;fill-rule:nonzero;"/>
            <path d="M2210,2390C2210,2393.25 2209.75,2396.45 2209.3,2399.65L2112.5,2392.5C2110.55,2426.55 2107.4,2460.25 2102.55,2493.45C2063.35,2507.05 2016,2515 1965,2515C1914,2515 1866.65,2507.05 1827.45,2493.45C1822.6,2460.25 1819.45,2426.55 1817.5,2392.5L1720.7,2399.65C1720.25,2396.45 1720,2393.25 1720,2390C1720,2320.95 1829.7,2265 1965,2265C2100.3,2265 2210,2320.95 2210,2390Z" style="fill:rgb(223,232,244);fill-rule:nonzero;"/>
            <path d="M1827.45,2493.45C1767.5,2472.7 1726.55,2438.7 1720.7,2399.65L1817.5,2392.5C1819.45,2426.55 1822.6,2460.25 1827.45,2493.45Z" style="fill:rgb(247,159,205);fill-rule:nonzero;"/>
            <path d="M2209.3,2399.65C2203.45,2438.7 2162.5,2472.7 2102.55,2493.45C2107.4,2460.25 2110.55,2426.55 2112.5,2392.5L2209.3,2399.65Z" style="fill:rgb(247,159,205);fill-rule:nonzero;"/>
            <path d="M2262.5,2767.5L2227.5,2892.5L1707.5,2892.5L1667.5,2767.5C1670.75,2693 1691.15,2622.15 1717.5,2552.5C1725.2,2496.75 1726.8,2445.1 1719.05,2399.75L1720.7,2399.65C1726.55,2438.7 1767.5,2472.7 1827.45,2493.45C1831.3,2520.15 1836.2,2546.5 1842.5,2572.5C1923.25,2582.6 2004.95,2582.4 2087.5,2572.5C2093.8,2546.5 2098.7,2520.15 2102.55,2493.45C2162.5,2472.7 2203.45,2438.7 2209.3,2399.65L2210.95,2399.75C2203.2,2445.1 2204.8,2496.75 2212.5,2552.5C2238.85,2622.15 2259.25,2693 2262.5,2767.5Z" style="fill:rgb(255,215,234);fill-rule:nonzero;"/>
            <path d="M1716.62,2880L2218.02,2880L2249.92,2766.06C2246.93,2703.32 2231.74,2638.7 2200.81,2556.92C2200.48,2556.05 2200.25,2555.14 2200.12,2554.22C2198.11,2539.79 2196.54,2525.66 2195.44,2512.22C2192.33,2474.46 2192.7,2441.25 2196.59,2411.21L2124.19,2405.89C2119.97,2469.09 2111.92,2524.67 2099.65,2575.44C2098.42,2580.51 2094.169,2584.29 2088.99,2584.91C2004.99,2594.98 1921.54,2594.98 1840.95,2584.9C1835.79,2584.26 1831.57,2580.49 1830.35,2575.44C1818.08,2524.66 1810.03,2469.09 1805.81,2405.9L1733.4,2411.23C1738.68,2451.99 1737.52,2498.94 1729.88,2554.21C1729.75,2555.14 1729.52,2556.05 1729.19,2556.92C1698.29,2638.59 1683.11,2703.15 1680.09,2765.83L1716.62,2880ZM2227.5,2905L1707.5,2905C1702.06,2905 1697.25,2901.49 1695.59,2896.31L1655.59,2771.31C1655.14,2769.9 1654.95,2768.43 1655.01,2766.95C1657.88,2701.15 1673.4,2634.01 1705.31,2549.4C1713.26,2491.09 1713.73,2442.81 1706.73,2401.86C1706.13,2398.38 1707.03,2394.82 1709.21,2392.05C1711.38,2389.27 1714.62,2387.54 1718.13,2387.28L1816.58,2380.03C1819.95,2379.82 1823.22,2380.9 1825.74,2383.1C1828.26,2385.31 1829.78,2388.43 1829.98,2391.78C1833.65,2455.19 1841.08,2510.7 1852.66,2561.13C1925.79,2569.59 2001.28,2569.57 2077.35,2561.09C2088.919,2510.68 2096.35,2455.18 2100.02,2391.78C2100.21,2388.43 2101.74,2385.31 2104.26,2383.1C2106.77,2380.89 2110.07,2379.79 2113.41,2380.03L2211.88,2387.28C2215.39,2387.55 2218.63,2389.28 2220.8,2392.05C2222.97,2394.83 2223.86,2398.39 2223.27,2401.85C2217.9,2433.32 2216.94,2468.75 2220.36,2510.17C2221.39,2522.73 2222.84,2535.91 2224.69,2549.4C2256.6,2634.01 2272.12,2701.16 2274.99,2766.95C2275.05,2768.28 2274.89,2769.6 2274.54,2770.87L2239.54,2895.87C2238.02,2901.27 2233.1,2905 2227.5,2905Z" style="fill:rgb(0,0,114);fill-rule:nonzero;"/>
            <path d="M1969.7,2592.35C1886.94,2592.35 1803.46,2583.14 1719.81,2564.71C1713.07,2563.22 1708.81,2556.55 1710.29,2549.81C1711.78,2543.07 1718.43,2538.79 1725.19,2540.29C1888.88,2576.36 2051.899,2576.37 2209.72,2540.31C2216.42,2538.77 2223.14,2542.98 2224.68,2549.72C2226.22,2556.44 2222.01,2563.15 2215.28,2564.68C2134.55,2583.13 2052.49,2592.35 1969.7,2592.35Z" style="fill:rgb(0,0,114);fill-rule:nonzero;"/>
            <path d="M2255,3178.67L2218.46,3475.46L2195.03,3665.79C2192.49,3686.52 2188.63,3707.09 2182.93,3727.2C2174.38,3757.34 2163.72,3781.08 2150.92,3798.53C2140.14,3813.29 2124.68,3821.68 2108.67,3823.83C2085.33,3826.91 2060.81,3816.76 2047.81,3793.53C2025.48,3753.59 2029.5,3686.32 2037.27,3615.19C2038.4,3604.81 2038.48,3594.34 2037.46,3583.96C2036.8,3576.85 2035.63,3569.79 2033.99,3562.84C2013.1,3474.76 1995.88,3377.63 1981.05,3274.71C1980.97,3274.4 1980.93,3274.09 1980.89,3273.74C1980.62,3272.02 1980.39,3270.3 1980.15,3268.58C1976.64,3244.11 1973.24,3219.35 1970,3194.29L2005.14,3053.74L2212.25,3040.08L2255,3178.67Z" style="fill:white;fill-rule:nonzero;"/>
            <path d="M2255,3178.67L2218.46,3475.46C2208.11,3533.71 2186.76,3574.55 2162.04,3599.61C2162.12,3599.03 2162.16,3598.44 2162.24,3597.86C2165.52,3567.13 2168.8,3536.37 2170.87,3505.52C2172.23,3485.46 2173.09,3465.39 2173.91,3445.28C2174.97,3419.91 2176.02,3394.49 2177.11,3369.12C2178.32,3339.68 2178.67,3307.39 2160.21,3284.44C2147.52,3268.62 2127.76,3260.03 2107.97,3255.54C2065.69,3245.94 2019.82,3253.01 1982.38,3274.91L1981.05,3274.71L1979.76,3274.52C1980.15,3274.32 1980.54,3274.09 1980.89,3273.74C1981.09,3273.58 1981.28,3273.39 1981.48,3273.15C1981.01,3271.63 1980.58,3270.11 1980.15,3268.58C1976.64,3244.11 1973.24,3219.35 1970,3194.29L2005.14,3053.74L2212.25,3040.08L2255,3178.67Z" style="fill:rgb(223,232,244);fill-rule:nonzero;"/>
            <path d="M1981.9,3194.98C2000.89,3340.68 2021.66,3460.15 2045.39,3560.13C2047.16,3567.65 2048.419,3575.3 2049.129,3582.87C2050.2,3593.92 2050.139,3605.24 2048.909,3616.46C2042.06,3679.22 2036.54,3749.39 2058.03,3787.82C2066.26,3802.52 2080.6,3811.54 2097.38,3812.56C2114.68,3813.64 2131.12,3805.78 2141.46,3791.62C2153.39,3775.37 2163.54,3752.62 2171.66,3724.01C2176.92,3705.44 2180.77,3685.93 2183.41,3664.36L2243.07,3179.73L2203.79,3052.38L2014.43,3064.87L1981.9,3194.98ZM2100.47,3836.08C2098.98,3836.08 2097.47,3836.03 2095.97,3835.94C2071.429,3834.45 2049.61,3820.74 2037.59,3799.25C2012.73,3754.79 2018.05,3683.31 2025.62,3613.92C2026.67,3604.3 2026.73,3594.6 2025.8,3585.1C2025.19,3578.55 2024.11,3571.98 2022.59,3565.53C1998.56,3464.26 1977.56,3343.31 1958.39,3195.8C1958.19,3194.34 1958.28,3192.87 1958.64,3191.45L1993.77,3050.9C1995.01,3045.96 1999.29,3042.39 2004.36,3042.05L2211.48,3028.39C2216.94,3028.03 2221.84,3031.44 2223.44,3036.63L2266.19,3175.22C2266.68,3176.8 2266.83,3178.46 2266.62,3180.1L2206.66,3667.22C2203.87,3689.99 2199.79,3710.66 2194.2,3730.4C2185.31,3761.71 2173.93,3786.97 2160.36,3805.46C2146.2,3824.84 2124.06,3836.08 2100.47,3836.08Z" style="fill:rgb(0,0,114);fill-rule:nonzero;"/>
            <path d="M2218.46,3475.46L2195.03,3665.79C2192.5,3686.52 2188.63,3707.09 2182.93,3727.2C2174.38,3757.34 2163.72,3781.08 2150.92,3798.53C2149.98,3799.82 2149,3801.07 2147.99,3802.24C2147.32,3803.06 2146.62,3803.84 2145.88,3804.58C2145.14,3805.44 2144.32,3806.22 2143.5,3807C2143.3,3807.23 2143.07,3807.43 2142.83,3807.63C2142.09,3808.37 2141.27,3809.07 2140.49,3809.69C2140.41,3809.81 2140.34,3809.85 2140.26,3809.93C2139.52,3810.55 2138.81,3811.14 2138.03,3811.65C2135.53,3813.6 2132.88,3815.32 2130.15,3816.8C2129.6,3817.11 2129.05,3817.39 2128.47,3817.66C2127.73,3818.05 2126.98,3818.44 2126.2,3818.75C2125.5,3819.1 2124.76,3819.42 2124.02,3819.73C2123.16,3820.08 2122.26,3820.43 2121.4,3820.7L2121.32,3820.74C2120.19,3821.17 2119.06,3821.52 2117.93,3821.84C2114.92,3822.73 2111.8,3823.4 2108.71,3823.83C2116.52,3819.77 2123.43,3813.72 2128.35,3806.57C2140.3,3789.28 2143.34,3767.53 2145.84,3746.64C2150.02,3712.29 2153.69,3677.85 2157.36,3643.42C2158.92,3628.82 2160.48,3614.22 2162.04,3599.61C2186.76,3574.55 2208.11,3533.71 2218.46,3475.46Z" style="fill:rgb(237,67,144);fill-rule:nonzero;"/>
            <path d="M2162.04,3599.61C2160.48,3614.22 2158.92,3628.82 2157.36,3643.42C2153.69,3677.85 2150.02,3712.29 2145.84,3746.64C2143.34,3767.53 2140.3,3789.28 2128.35,3806.57C2123.43,3813.72 2116.52,3819.77 2108.71,3823.83C2085.37,3826.95 2060.81,3816.76 2047.81,3793.53C2025.48,3753.59 2029.5,3686.32 2037.27,3615.19C2038.4,3604.81 2038.48,3594.34 2037.46,3583.96C2057.139,3637.95 2115.55,3646.74 2162.04,3599.61Z" style="fill:rgb(255,120,175);fill-rule:nonzero;"/>
            <path d="M2046.79,3617.88C2039.99,3680.52 2034.75,3750.17 2056.33,3788.77C2064.879,3804.07 2079.81,3813.45 2097.26,3814.51C2115.2,3815.59 2132.3,3807.47 2143.04,3792.77C2155.1,3776.33 2165.36,3753.38 2173.54,3724.54C2178.83,3705.88 2182.69,3686.27 2185.35,3664.6L2197.16,3568.64C2170.41,3616.24 2134.29,3637.16 2104.69,3639.73C2082.159,3641.69 2061.76,3633.66 2046.79,3617.88ZM2100.47,3834.13C2099.01,3834.13 2097.55,3834.08 2096.08,3833.99C2072.21,3832.55 2050.98,3819.2 2039.29,3798.3C2014.71,3754.34 2020.35,3680.19 2027.57,3614.13C2028.63,3604.37 2028.69,3594.54 2027.75,3584.91C2027.27,3580.02 2030.5,3575.53 2035.3,3574.44C2040.11,3573.34 2044.95,3576 2046.63,3580.62C2056.49,3607.67 2077.58,3622.5 2103,3620.28C2143.35,3616.78 2191.72,3570.11 2208.85,3473.75C2209.77,3468.55 2214.68,3464.99 2219.91,3465.81C2225.14,3466.6 2228.79,3471.41 2228.15,3476.65L2204.72,3666.98C2201.95,3689.65 2197.89,3710.22 2192.32,3729.86C2183.5,3760.95 2172.22,3786 2158.79,3804.3C2144.99,3823.18 2123.44,3834.13 2100.47,3834.13Z" style="fill:rgb(0,0,114);fill-rule:nonzero;"/>
            <path d="M2041.91,3600.32C2068.03,3570.9 2133.95,3579.86 2163.76,3600.32C2172.09,3591.74 2177.39,3581.18 2180.82,3569.39C2130.82,3542.07 2076.879,3544.59 2032.47,3567.13L2041.91,3600.32Z" style="fill:rgb(255,120,175);fill-rule:nonzero;"/>
            <path d="M2095.44,3573.54C2119.52,3573.54 2144.62,3580.16 2162.22,3590.17C2165.91,3585.35 2168.93,3579.75 2171.33,3573.25C2130.13,3552.87 2083.58,3552.16 2041.77,3571.31L2046.07,3586.41C2059.44,3577.36 2077.149,3573.54 2095.44,3573.54ZM2041.91,3608.12C2041.33,3608.12 2040.75,3608.06 2040.17,3607.93C2037.39,3607.29 2035.17,3605.19 2034.4,3602.45L2024.96,3569.27C2023.93,3565.67 2025.6,3561.86 2028.93,3560.17C2078.78,3534.87 2135.51,3535.73 2184.57,3562.54C2187.78,3564.29 2189.34,3568.05 2188.32,3571.57C2184.22,3585.66 2178.02,3596.84 2169.36,3605.76C2166.71,3608.49 2162.47,3608.91 2159.34,3606.75C2131.68,3587.78 2070.69,3579.67 2047.74,3605.5C2046.24,3607.19 2044.11,3608.12 2041.91,3608.12Z" style="fill:rgb(0,0,114);fill-rule:nonzero;"/>
            <path d="M1665,3178.67L1701.54,3475.46L1724.97,3665.79C1727.51,3686.52 1731.37,3707.09 1737.07,3727.2C1745.62,3757.34 1756.28,3781.08 1769.08,3798.53C1779.86,3813.29 1795.32,3821.68 1811.33,3823.83C1834.67,3826.91 1859.19,3816.76 1872.19,3793.53C1894.52,3753.59 1890.5,3686.32 1882.73,3615.19C1881.6,3604.81 1881.52,3594.34 1882.54,3583.96C1883.2,3576.85 1884.37,3569.79 1886.01,3562.84C1906.9,3474.76 1924.12,3377.63 1938.95,3274.71C1939.03,3274.4 1939.07,3274.09 1939.11,3273.74C1939.38,3272.02 1939.61,3270.3 1939.85,3268.58C1943.36,3244.11 1946.76,3219.35 1950,3194.29L1914.86,3053.74L1707.75,3040.08L1665,3178.67Z" style="fill:white;fill-rule:nonzero;"/>
            <path d="M1665,3178.67L1701.54,3475.46C1711.89,3533.71 1733.24,3574.55 1757.96,3599.61C1757.88,3599.03 1757.84,3598.44 1757.76,3597.86C1754.48,3567.13 1751.2,3536.37 1749.13,3505.52C1747.77,3485.46 1746.91,3465.39 1746.09,3445.28C1745.03,3419.91 1743.98,3394.49 1742.89,3369.12C1741.68,3339.68 1741.33,3307.39 1759.79,3284.44C1772.48,3268.62 1792.23,3260.03 1812.03,3255.54C1854.31,3245.94 1900.18,3253.01 1937.62,3274.91L1938.95,3274.71L1940.24,3274.52C1939.85,3274.32 1939.46,3274.09 1939.11,3273.74C1938.91,3273.58 1938.72,3273.39 1938.52,3273.15C1938.99,3271.63 1939.42,3270.11 1939.85,3268.58C1943.36,3244.11 1946.76,3219.35 1950,3194.29L1914.86,3053.74L1707.75,3040.08L1665,3178.67Z" style="fill:rgb(223,232,244);fill-rule:nonzero;"/>
            <path d="M1676.93,3179.73L1736.59,3664.36C1739.23,3685.93 1743.07,3705.44 1748.34,3724.01C1756.45,3752.62 1766.61,3775.36 1778.53,3791.6C1788.88,3805.77 1805.32,3813.61 1822.62,3812.56C1839.4,3811.54 1853.74,3802.52 1861.97,3787.81C1883.46,3749.38 1877.94,3679.22 1871.09,3616.46C1869.87,3605.24 1869.8,3593.92 1870.88,3582.82C1871.58,3575.31 1872.84,3567.66 1874.61,3560.15C1898.34,3460.17 1919.11,3340.7 1938.1,3194.98L1905.57,3064.87L1716.21,3052.38L1676.93,3179.73ZM1819.53,3836.08C1795.93,3836.08 1773.8,3824.84 1759.63,3805.44C1746.07,3786.96 1734.68,3761.71 1725.8,3730.4C1720.2,3710.65 1716.13,3689.98 1713.34,3667.21L1653.38,3180.1C1653.17,3178.46 1653.32,3176.8 1653.81,3175.22L1696.56,3036.63C1698.16,3031.44 1703.06,3028.07 1708.52,3028.39L1915.63,3042.05C1920.71,3042.39 1924.99,3045.96 1926.22,3050.9L1961.36,3191.45C1961.72,3192.87 1961.8,3194.34 1961.61,3195.8C1942.44,3343.33 1921.44,3464.27 1897.41,3565.54C1895.89,3571.99 1894.8,3578.56 1894.2,3585.05C1893.27,3594.6 1893.33,3604.3 1894.37,3613.92C1901.95,3683.31 1907.28,3754.78 1882.41,3799.25C1870.39,3820.74 1848.57,3834.45 1824.03,3835.94C1822.53,3836.03 1821.02,3836.08 1819.53,3836.08Z" style="fill:rgb(0,0,114);fill-rule:nonzero;"/>
            <path d="M1701.54,3475.46L1724.97,3665.79C1727.5,3686.52 1731.37,3707.09 1737.07,3727.2C1745.62,3757.34 1756.28,3781.08 1769.08,3798.53C1770.02,3799.82 1771,3801.07 1772.01,3802.24C1772.68,3803.06 1773.38,3803.84 1774.12,3804.58C1774.86,3805.44 1775.68,3806.22 1776.5,3807C1776.7,3807.23 1776.93,3807.43 1777.17,3807.63C1777.91,3808.37 1778.73,3809.07 1779.51,3809.69C1779.59,3809.81 1779.66,3809.85 1779.74,3809.93C1780.48,3810.55 1781.19,3811.14 1781.97,3811.65C1784.47,3813.6 1787.12,3815.32 1789.85,3816.8C1790.4,3817.11 1790.95,3817.39 1791.53,3817.66C1792.27,3818.05 1793.02,3818.44 1793.8,3818.75C1794.5,3819.1 1795.24,3819.42 1795.98,3819.73C1796.84,3820.08 1797.74,3820.43 1798.6,3820.7L1798.68,3820.74C1799.81,3821.17 1800.94,3821.52 1802.07,3821.84C1805.08,3822.73 1808.2,3823.4 1811.29,3823.83C1803.48,3819.77 1796.57,3813.72 1791.65,3806.57C1779.7,3789.28 1776.66,3767.53 1774.16,3746.64C1769.98,3712.29 1766.31,3677.85 1762.64,3643.42C1761.08,3628.82 1759.52,3614.22 1757.96,3599.61C1733.24,3574.55 1711.89,3533.71 1701.54,3475.46Z" style="fill:rgb(237,67,144);fill-rule:nonzero;"/>
            <path d="M1757.96,3599.61C1759.52,3614.22 1761.08,3628.82 1762.64,3643.42C1766.31,3677.85 1769.98,3712.29 1774.16,3746.64C1776.66,3767.53 1779.7,3789.28 1791.65,3806.57C1796.57,3813.72 1803.48,3819.77 1811.29,3823.83C1834.63,3826.95 1859.19,3816.76 1872.19,3793.53C1894.52,3753.59 1890.5,3686.32 1882.73,3615.19C1881.6,3604.81 1881.52,3594.34 1882.54,3583.96C1862.86,3637.95 1804.45,3646.74 1757.96,3599.61Z" style="fill:rgb(255,120,175);fill-rule:nonzero;"/>
            <path d="M1722.85,3568.65L1734.65,3664.6C1737.31,3686.27 1741.17,3705.87 1746.46,3724.54C1754.64,3753.38 1764.9,3776.33 1776.95,3792.76C1787.7,3807.47 1804.8,3815.6 1822.74,3814.51C1840.19,3813.45 1855.12,3804.07 1863.67,3788.77C1885.26,3750.17 1880.01,3680.51 1873.2,3617.88C1858.23,3633.66 1837.83,3641.68 1815.3,3639.73C1785.71,3637.16 1749.59,3616.24 1722.85,3568.65ZM1819.53,3834.13C1796.56,3834.13 1775.01,3823.18 1761.2,3804.29C1747.78,3786 1736.5,3760.95 1727.68,3729.86C1722.11,3710.22 1718.05,3689.65 1715.28,3666.97L1691.85,3476.65C1691.21,3471.41 1694.86,3466.6 1700.09,3465.81C1705.28,3464.99 1710.23,3468.55 1711.15,3473.75C1728.28,3570.11 1776.65,3616.78 1816.99,3620.28C1842.43,3622.49 1863.51,3607.67 1873.37,3580.62C1875.05,3576 1879.92,3573.36 1884.7,3574.44C1889.49,3575.53 1892.73,3580.01 1892.25,3584.91C1891.31,3594.54 1891.37,3604.38 1892.43,3614.14C1899.65,3680.18 1905.29,3754.34 1880.71,3798.3C1869.02,3819.2 1847.79,3832.55 1823.92,3833.99C1822.45,3834.08 1820.99,3834.13 1819.53,3834.13Z" style="fill:rgb(0,0,114);fill-rule:nonzero;"/>
            <path d="M1878.09,3600.32C1851.97,3570.9 1786.05,3579.86 1756.24,3600.32C1747.91,3591.74 1742.61,3581.18 1739.18,3569.39C1789.18,3542.07 1843.12,3544.59 1887.53,3567.13L1878.09,3600.32Z" style="fill:rgb(255,120,175);fill-rule:nonzero;"/>
            <path d="M1748.66,3573.25C1751.07,3579.75 1754.09,3585.35 1757.78,3590.17C1788.75,3572.55 1842.95,3565.43 1873.93,3586.41L1878.23,3571.31C1836.42,3552.16 1789.86,3552.86 1748.66,3573.25ZM1878.09,3608.12C1875.89,3608.12 1873.75,3607.19 1872.26,3605.5C1849.31,3579.67 1788.32,3587.78 1760.66,3606.75C1757.53,3608.91 1753.3,3608.49 1750.64,3605.76C1741.98,3596.84 1735.78,3585.65 1731.68,3571.57C1730.66,3568.05 1732.22,3564.29 1735.43,3562.54C1784.49,3535.74 1841.21,3534.87 1891.07,3560.17C1894.4,3561.86 1896.07,3565.67 1895.04,3569.27L1885.6,3602.45C1884.82,3605.19 1882.61,3607.29 1879.83,3607.93C1879.25,3608.06 1878.67,3608.12 1878.09,3608.12Z" style="fill:rgb(0,0,114);fill-rule:nonzero;"/>
            <path d="M1200.04,3045.63C1216.34,3041.44 1233.59,3042.73 1251.66,3048.72L1276.56,3235.99C1339.41,3174.37 1432.46,3102.9 1483.09,3158.79L1639.09,3339.06C1719.12,3318.2 1787.05,3336.13 1837.9,3408.82L1985.12,3302.13C2058.07,3277.94 2111.5,3336.09 2106.76,3446.69L2305.21,3228.73L2344.09,3199.82C2402.16,3202.22 2457.05,3214.73 2507.95,3240L2528.24,3117.94L2560.94,3035.51C2580.06,3033.88 2606.27,3033.95 2636.04,3041.19C2694.87,3055.5 2732.85,3089.36 2749.82,3106.72C2752.88,3105.72 2785.83,3094.33 2796.03,3060.24C2804.46,3032.07 2791.21,3008.93 2788.87,3005L2751.19,2899.14L2768.38,2863.57C2793.48,2875.46 2816.12,2891.59 2836.26,2912.01C2876.81,2843.87 2872.07,2780.27 2836.95,2729.48L2707.87,2746.48L2309.22,2849.93L2046.48,3053.1L1656.13,3006.98L1440.39,2903.91L1362.94,2757.28L1240.19,2789.39L1180.12,2895.82C1173.78,2953.52 1174.78,3006.84 1200.04,3045.63Z" style="fill:rgb(237,67,144);fill-rule:nonzero;"/>
            <path d="M2016.88,3285.08C2036.13,3285.08 2053.82,3290.91 2069.139,3302.48C2098.34,3324.53 2115.34,3364.58 2118.19,3416.95L2296.66,3220.94C2297.16,3220.39 2297.71,3219.89 2298.31,3219.45L2337.18,3190.53C2339.31,3188.95 2341.85,3188.14 2344.56,3188.26C2400.53,3190.57 2452.42,3202.26 2499.05,3223.03L2516.83,3116.04C2516.96,3115.23 2517.18,3114.44 2517.49,3113.68L2550.19,3031.24C2551.8,3027.16 2555.59,3024.35 2559.96,3023.98C2586.64,3021.71 2613.15,3023.73 2638.77,3029.96C2691.08,3042.68 2728.81,3070.28 2752.54,3093.13C2761.92,3088.63 2778.66,3077.94 2784.95,3056.92C2791.58,3034.76 2782.02,3016.1 2778.93,3010.91C2778.55,3010.26 2778.23,3009.58 2777.98,3008.88L2740.29,2903.02C2739.25,2900.1 2739.43,2896.89 2740.78,2894.11L2757.97,2858.53C2760.74,2852.81 2767.6,2850.39 2773.34,2853.12C2795.09,2863.43 2815.25,2876.91 2833.41,2893.29C2860.93,2839.74 2860.24,2787.77 2831.3,2741.89L2710.09,2757.86L2314.42,2860.53L2053.56,3062.25C2051.159,3064.1 2048.129,3064.93 2045.13,3064.59L1654.77,3018.47C1653.51,3018.32 1652.28,3017.96 1651.14,3017.42L1435.4,2914.35C1433.16,2913.28 1431.32,2911.51 1430.16,2909.32L1356.99,2770.79L1247.86,2799.34L1191.36,2899.43C1186.81,2942.09 1184.81,2994.44 1205.76,3032.67C1221.34,3030.29 1237.96,3031.99 1255.3,3037.75C1259.5,3039.14 1262.54,3042.81 1263.12,3047.2L1285.03,3211.93C1347.15,3154.39 1399.32,3125.95 1439.94,3127.07C1460.41,3127.68 1477.82,3135.74 1491.66,3151.02L1643.2,3326.13C1725.3,3306.86 1791.56,3329.24 1840.43,3392.71L1978.33,3292.77C1979.29,3292.07 1980.35,3291.53 1981.48,3291.15C1993.7,3287.1 2005.56,3285.08 2016.88,3285.08ZM2106.76,3458.26C2105.28,3458.26 2103.78,3457.98 2102.36,3457.39C2097.85,3455.53 2094.99,3451.06 2095.2,3446.2C2097.71,3387.68 2083.129,3342.03 2055.2,3320.94C2037.61,3307.66 2015.24,3304.78 1990.42,3312.57L1844.69,3418.19C1842.18,3420.01 1839.04,3420.74 1835.99,3420.23C1832.93,3419.71 1830.2,3417.99 1828.43,3415.45C1783.12,3350.69 1722.14,3329.36 1642.01,3350.26C1637.76,3351.36 1633.23,3349.96 1630.35,3346.63L1474.34,3166.36C1464.92,3155.97 1453.39,3150.62 1439.25,3150.2C1401.86,3149.03 1348.55,3181.62 1284.65,3244.25C1281.52,3247.32 1276.93,3248.35 1272.79,3246.93C1268.65,3245.5 1265.67,3241.86 1265.09,3237.52L1241.17,3057.67C1227.39,3054.05 1214.82,3053.78 1202.92,3056.83C1198.12,3058.07 1193.06,3056.1 1190.35,3051.95C1160.76,3006.5 1163.19,2943.96 1168.62,2894.56C1168.79,2893 1169.28,2891.5 1170.05,2890.13L1230.12,2783.71C1231.66,2780.98 1234.23,2778.99 1237.27,2778.2L1360.01,2746.09C1365.21,2744.73 1370.65,2747.13 1373.16,2751.88L1448.83,2895.13L1659.39,2995.72L2043.15,3041.06L2302.15,2840.78C2303.38,2839.82 2304.8,2839.12 2306.31,2838.73L2704.96,2735.29C2705.42,2735.17 2705.89,2735.08 2706.36,2735.02L2835.44,2718.01C2839.74,2717.44 2844,2719.33 2846.47,2722.9C2886.6,2780.95 2886.5,2850.21 2846.2,2917.92C2844.36,2921 2841.21,2923.06 2837.65,2923.49C2834.08,2923.92 2830.53,2922.68 2828.02,2920.13C2811.75,2903.63 2793.51,2889.9 2773.67,2879.21L2763.71,2899.82L2799.41,3000.11C2804.22,3008.55 2816.05,3033.7 2807.11,3063.55C2795.31,3103 2757.67,3116.33 2753.41,3117.72C2749.22,3119.08 2744.63,3117.96 2741.55,3114.81C2720.46,3093.24 2684.57,3064.9 2633.3,3052.44C2612.38,3047.35 2590.78,3045.37 2569.01,3046.54L2539.45,3121.06L2519.36,3241.9C2518.76,3245.51 2516.48,3248.63 2513.22,3250.3C2509.96,3251.97 2506.09,3251.99 2502.81,3250.36C2456.66,3227.45 2404.49,3214.4 2347.68,3211.56L2313.01,3237.34L2115.31,3454.48C2113.07,3456.94 2109.95,3458.26 2106.76,3458.26Z" style="fill:rgb(0,0,114);fill-rule:nonzero;"/>
            <path d="M2795.87,3020.19C2771.02,2962.37 2738.54,2930.4 2697.99,2925.58L2697.95,2925.57C2694.14,2925.1 2690.3,2924.94 2686.34,2924.94C2666.49,2925.1 2647.36,2932.18 2631.09,2943.5C2621.6,2950.13 2613.42,2957.21 2606.36,2964.75L2606.31,2964.78C2535.44,3039.97 2574.27,3156.79 2507.95,3240C2507.42,3236.93 2506.81,3233.95 2506.16,3231.12C2506.16,3231 2506.15,3230.88 2506.14,3230.79C2498.98,3200.9 2484.31,3181.41 2463.6,3170.12C2439.1,3156.76 2409.31,3157.45 2384.28,3169.81C2382.53,3170.66 2380.81,3171.55 2379.11,3172.5C2262.68,3236.37 2285.01,3451.61 2106.76,3446.69C2131.64,3388.81 2136.05,3339.27 2117.22,3299.2C2115.41,3295.27 2113.23,3291.6 2110.75,3288.11L2110.72,3288.1C2097.5,3269.44 2075.87,3257.84 2052.399,3259.29C2028.23,3260.79 2008.3,3273.52 1991.86,3293.39C1965.16,3325.55 1947.65,3376.34 1935.99,3428.25C1930.96,3450.62 1911.62,3467.76 1888.47,3468.27C1838.72,3469.37 1841.8,3394.11 1813.37,3337.45C1806.15,3323.06 1795.74,3310.97 1783.27,3301.85C1761.81,3286.14 1734.35,3279.31 1707.14,3285.31C1681.23,3291.02 1664.82,3306.02 1651.07,3323.92L1651.05,3323.99C1637.59,3341.46 1626.73,3361.6 1612.02,3378.38C1600.69,3391.26 1582.41,3395.64 1566.41,3389.16C1480.74,3354.48 1514.69,3233.49 1472.09,3124.69C1469.01,3116.87 1464.78,3109.67 1459.56,3103.34C1447.59,3088.73 1430.52,3078.65 1411.17,3075.92C1383.33,3071.98 1359.9,3076.81 1340.7,3087.11L1340.65,3087.14C1285.18,3117 1265.31,3192.99 1276.56,3235.99C1143.93,3084.55 1305.31,2944.7 1319.52,2853.82C1319.71,2852.51 1319.85,2851.23 1319.86,2849.96C1320.53,2831.08 1304.09,2815.75 1285.29,2817.41C1283.6,2817.52 1281.86,2817.81 1280.11,2818.26C1209.36,2836.21 1178.56,2977.08 1200.04,3045.63C1123.41,2938.48 1166.41,2770.54 1270,2707.99C1277.83,2703.28 1286.1,2699.54 1294.58,2696.86C1327.94,2686.09 1365,2690.69 1395.49,2709.72C1465.91,2753.62 1546.26,2784.99 1635.62,2805L1635.74,2804.59C1637.09,2800.07 1638.65,2795.8 1640.39,2791.87L1640.4,2791.83C1645.89,2779.4 1653.39,2770.11 1663.67,2765.2C1799.44,2887.45 2117.25,2861.2 2245.94,2738.12C2249.84,2734.41 2253.57,2730.59 2257.11,2726.7C2270.64,2738.38 2281.61,2755.5 2290.73,2776.53C2291.32,2776.58 2291.87,2776.62 2292.46,2776.67C2442.13,2788.67 2597.08,2719.34 2769.94,2701.43C2782.99,2700.09 2796.3,2701.66 2808.4,2706.76C2826.73,2714.52 2840.34,2728.77 2847.84,2751.41C2827.76,2744.78 2812.16,2746.13 2800.31,2753.47L2800.26,2753.5C2749.26,2785.14 2767.79,2927.59 2795.87,3020.19Z" style="fill:rgb(255,120,175);fill-rule:nonzero;"/>
            <path d="M2292.46,2776.67C2278.79,2793.91 2260.32,2810.15 2239.53,2825.91C2159.57,2884.17 2049.34,2919.7 1945.91,2913.79C1862.28,2921.02 1695.27,2886.59 1635.74,2804.59C1635.25,2803.93 1634.76,2803.27 1634.31,2802.61L1640.39,2791.87L1640.4,2791.83C1791.34,2923.25 2061.61,2918.35 2212.24,2817.5C2238.36,2800.02 2251.48,2768.83 2245.94,2738.12C2249.84,2734.41 2253.57,2730.59 2257.11,2726.7C2270.64,2738.38 2281.61,2755.5 2290.73,2776.53C2291.32,2776.58 2291.87,2776.62 2292.46,2776.67Z" style="fill:rgb(237,67,144);fill-rule:nonzero;"/>
            <path d="M1302.4,2697.59C1302.13,2697.55 1301.85,2697.54 1301.58,2697.5C1302.93,2696.9 1304.27,2696.33 1305.64,2695.81L1302.4,2697.59Z" style="fill:rgb(237,67,144);fill-rule:nonzero;"/>
            <path d="M1453.76,2811.75C1412.91,2807.41 1371.82,2805.07 1330.74,2804.86C1320.3,2804.77 1309.6,2804.88 1299.85,2808.59C1294.38,2810.67 1289.55,2813.7 1285.29,2817.41C1283.6,2817.52 1281.86,2817.81 1280.11,2818.26C1209.36,2836.21 1178.56,2977.08 1200.04,3045.63C1123.41,2938.48 1166.41,2770.54 1270,2707.99C1277.83,2703.28 1286.1,2699.54 1294.58,2696.86C1296.9,2697.06 1299.26,2697.27 1301.58,2697.5C1289.59,2702.72 1278.62,2710.11 1269.28,2719.18C1262.09,2726.2 1255.6,2734.94 1255.29,2744.93C1254.86,2757.72 1265,2768.97 1276.81,2774.22C1288.57,2779.5 1301.87,2780.15 1314.74,2781.19C1362.21,2785.02 1409.12,2795.34 1453.76,2811.75Z" style="fill:rgb(237,67,144);fill-rule:nonzero;"/>
            <path d="M1593.95,2922.33C1564.88,2943.35 1533.77,2961.45 1502.69,2979.48C1473.55,2996.4 1444.41,3013.32 1415.27,3030.24C1395.23,3041.86 1375.04,3053.6 1357.83,3069C1351.65,3074.52 1345.84,3080.58 1340.7,3087.11L1340.65,3087.14C1285.18,3117 1265.31,3192.99 1276.56,3235.99C1143.93,3084.55 1305.31,2944.7 1319.52,2853.82C1319.71,2852.51 1319.85,2851.23 1319.86,2849.96C1321.62,2848.67 1323.41,2847.43 1325.28,2846.3L1328.76,2842.48C1331.1,2863.88 1328.78,2885.72 1321.99,2906.18C1313.86,2930.84 1299.11,2954.92 1302.21,2980.67C1303.32,2989.67 1307.05,2998.96 1314.73,3003.97C1323.01,3009.39 1333.86,3008.64 1343.74,3007.37C1431.53,2996.08 1513.54,2958.97 1593.95,2922.33Z" style="fill:rgb(237,67,144);fill-rule:nonzero;"/>
            <path d="M1700.64,3151.58C1693.81,3179.74 1691.05,3208.85 1682.25,3236.44C1676.31,3255.1 1667.72,3272.79 1661.1,3291.17C1657.24,3301.92 1654.05,3312.87 1651.07,3323.92L1651.05,3323.99C1637.59,3341.46 1626.73,3361.6 1612.02,3378.38C1600.69,3391.26 1582.41,3395.64 1566.41,3389.16C1480.74,3354.48 1514.69,3233.49 1472.09,3124.69C1469.01,3116.87 1464.78,3109.67 1459.56,3103.34L1462.43,3098.18C1475.1,3101.89 1484.71,3112.49 1490.91,3124.07C1497.06,3135.67 1500.53,3148.44 1505.38,3160.61C1511.78,3176.65 1520.87,3191.94 1533.94,3203.28C1547.02,3214.67 1564.48,3221.73 1581.77,3220.1C1613.24,3217.18 1634.91,3188.44 1651.68,3161.95C1683.95,3110.98 1714.29,3057.82 1758.02,3016.13C1735.22,3059.74 1712.23,3103.85 1700.64,3151.58Z" style="fill:rgb(237,67,144);fill-rule:nonzero;"/>
            <path d="M1935.99,3428.25C1930.96,3450.62 1911.62,3467.76 1888.47,3468.27C1838.72,3469.37 1841.8,3394.11 1813.37,3337.45C1806.15,3323.06 1795.74,3310.97 1783.27,3301.85L1785.4,3294.59C1793.57,3300.5 1798.93,3309.51 1806.49,3316.24C1814.02,3322.96 1825.92,3327.12 1834.2,3321.3C1840.28,3317.04 1842.14,3309.06 1843.58,3301.8C1853.4,3252 1863.2,3202.14 1873.02,3152.34C1878.69,3123.48 1884.42,3094.27 1882.67,3064.93C1892.32,3108.27 1899.34,3152.15 1903.66,3196.29C1907.4,3234.38 1909.59,3274.26 1929.15,3307.3C1933.26,3314.22 1939.32,3321.43 1947.49,3321.54C1953.33,3321.61 1958.47,3317.91 1963.12,3314.39C1972.79,3307.06 1982.4,3299.75 1992.07,3292.41C1992.01,3292.76 1991.92,3293.05 1991.86,3293.39C1965.16,3325.55 1947.65,3376.34 1935.99,3428.25Z" style="fill:rgb(237,67,144);fill-rule:nonzero;"/>
            <path d="M2382.2,3169.32C2381.16,3170.38 2380.12,3171.43 2379.11,3172.5C2262.68,3236.37 2285.01,3451.61 2106.76,3446.69C2131.64,3388.81 2136.05,3339.27 2117.22,3299.2C2115.41,3295.27 2113.23,3291.6 2110.75,3288.11L2110.72,3288.1C2112.57,3267.41 2106.98,3246.09 2096.71,3227.81C2086.95,3210.44 2073.31,3195.49 2062.129,3178.94C2053.45,3166.05 2046.3,3152.24 2039.15,3138.43C2019.74,3100.96 2000.34,3063.49 1980.94,3026.02L1978.16,3012.45C1985.87,3042.78 2006.57,3067.95 2026.66,3092.02C2073.94,3148.6 2121.18,3205.17 2168.42,3261.73C2181.11,3276.88 2195.76,3293.2 2215.5,3295.58C2234.8,3297.94 2253.19,3285.88 2265.51,3271C2277.86,3256.17 2286.01,3238.36 2297.52,3222.84C2317.77,3195.48 2348.6,3176.02 2382.2,3169.32Z" style="fill:rgb(237,67,144);fill-rule:nonzero;"/>
            <path d="M2607.04,2963.15C2606.8,2963.68 2606.56,2964.21 2606.36,2964.75L2606.31,2964.78C2535.44,3039.97 2574.27,3156.79 2507.95,3240C2507.42,3236.93 2506.81,3233.95 2506.16,3231.12C2506.16,3231 2506.15,3230.88 2506.14,3230.79C2505.91,3226.01 2505.35,3221.24 2504.34,3216.51C2497.6,3185.1 2472.05,3161.31 2446.29,3141.74C2411.35,3115.17 2373.65,3092.39 2336.03,3069.63C2325.87,3063.46 2315.71,3057.29 2305.51,3051.15C2265.53,3026.94 2225.52,3002.73 2184.52,2980.22L2173.22,2972.32C2247.38,3007.76 2321.58,3043.21 2395.78,3078.66C2427.36,3093.73 2463.72,3109.08 2496.25,3096.11C2523.74,3085.11 2539.68,3057.17 2552.89,3030.92C2566.15,3004.67 2580.55,2976.33 2607.04,2963.15Z" style="fill:rgb(237,67,144);fill-rule:nonzero;"/>
            <path d="M2369.48,2871.98C2371.55,2872.63 2373.63,2873.24 2375.75,2873.86C2367.64,2874.21 2359.55,2874.64 2351.46,2875.08L2369.48,2871.98Z" style="fill:rgb(237,67,144);fill-rule:nonzero;"/>
            <path d="M2795.87,3020.19C2771.02,2962.37 2738.54,2930.4 2697.99,2925.58L2697.95,2925.57C2674.83,2912.61 2649.43,2903.87 2623.05,2901.15C2604.35,2899.21 2585.47,2900.33 2566.73,2899.21C2529.39,2897.01 2492.92,2886.11 2455.57,2885.19C2446.31,2884.96 2437.01,2885.37 2427.78,2884.75C2410.05,2883.64 2392.79,2878.92 2375.75,2873.86C2475.54,2868.95 2575.53,2867.83 2675.41,2870.47C2698.66,2871.1 2725.24,2870.59 2740.61,2853.25C2752.37,2839.97 2753.62,2820.9 2759.16,2804.12C2766.31,2782.21 2781.69,2763.03 2801.58,2751.12C2801.14,2751.91 2800.71,2752.67 2800.31,2753.47L2800.26,2753.5C2749.27,2785.14 2767.79,2927.59 2795.87,3020.19Z" style="fill:rgb(237,67,144);fill-rule:nonzero;"/>
            <path d="M1727.07,3271.59C1767.01,3271.59 1804.77,3294.53 1823.7,3332.27C1833.57,3351.93 1839.83,3373.77 1845.36,3393.03C1857.13,3434.03 1864.87,3457.26 1888.21,3456.7C1905.41,3456.32 1920.76,3443.3 1924.71,3425.73C1950.45,3311.24 1993.17,3251.36 2051.69,3247.75C2083.679,3245.75 2113.52,3264.04 2127.71,3294.29C2145.75,3332.72 2144.48,3379.94 2123.98,3434.86C2208.96,3429.59 2239.79,3364.69 2272.34,3296.21C2298.02,3242.19 2324.57,3186.33 2379.15,3159.42C2408.4,3144.99 2442.04,3145.2 2469.13,3159.97C2489.38,3171.01 2503.95,3188.6 2512.66,3212.43C2531.66,3178.96 2537.4,3141.09 2543.4,3101.41C2552.64,3040.43 2562.19,2977.37 2624.49,2934C2643.65,2920.67 2665.01,2913.54 2686.27,2913.39L2687.04,2913.39C2717.55,2913.39 2744.36,2926.12 2767.25,2951.37C2753.14,2877.1 2747.89,2787.04 2784.71,2751.09C2793.15,2742.86 2806.75,2734.75 2827.16,2735.68C2821.19,2727.5 2813.47,2721.47 2803.89,2717.42C2794.1,2713.28 2782.77,2711.72 2771.12,2712.94C2701,2720.21 2633.46,2736.11 2568.15,2751.49C2471.61,2774.22 2380.44,2795.68 2289.75,2788.05C2285.52,2787.7 2281.82,2785.04 2280.12,2781.14C2273.28,2765.41 2265.64,2752.71 2257.32,2743.21C2196.13,2804.02 2089.389,2845.35 1968.54,2854.5C1843.95,2863.92 1730.52,2836 1662.63,2779.59C1655.98,2785.28 1650.73,2794.76 1646.71,2808.29C1644.97,2814.12 1639.02,2817.6 1633.09,2816.29C1541.38,2795.77 1459.39,2763.21 1389.38,2719.52C1354.18,2697.55 1310.73,2696.93 1275.98,2717.91C1227.74,2747.03 1191.05,2802.68 1177.83,2866.77C1169.57,2906.81 1171.2,2946.71 1181.95,2982.36C1183.81,2941.13 1195.09,2896.43 1213.83,2862.88C1230.74,2832.59 1252.67,2813.28 1277.25,2807.04C1291.46,2803.44 1306.44,2807.19 1317.31,2817.09C1328.09,2826.91 1333.19,2841.31 1330.95,2855.62C1326.56,2883.63 1309.56,2915.25 1291.55,2948.72C1251.2,3023.71 1206.01,3107.71 1262.6,3198.13C1265.19,3166.77 1277.49,3130.85 1301.8,3103.57C1321.59,3081.36 1356.91,3056.55 1412.79,3064.47C1444.23,3068.92 1471.08,3090.38 1482.86,3120.47C1499.36,3162.6 1504.77,3206.67 1509.54,3245.55C1517.34,3309.1 1523.51,3359.3 1570.75,3378.43C1582.15,3383.05 1595.25,3379.96 1603.32,3370.74C1611.38,3361.54 1618.23,3351.27 1625.48,3340.38C1644.26,3312.18 1663.68,3283.02 1704.64,3274.03C1712.12,3272.38 1719.64,3271.59 1727.07,3271.59ZM1887.34,3479.84C1846.21,3479.85 1834.48,3438.96 1823.13,3399.41C1817.62,3380.22 1811.92,3360.38 1803.02,3342.64C1785.32,3307.35 1746.9,3288.43 1709.61,3296.62C1677.76,3303.62 1662.45,3326.6 1644.73,3353.21C1637.38,3364.24 1629.79,3375.64 1620.72,3385.99C1606.17,3402.6 1582.6,3408.18 1562.07,3399.88C1502.2,3375.63 1494.62,3313.82 1486.58,3248.37C1481.75,3209.02 1476.75,3168.32 1461.32,3128.91C1452.58,3106.57 1432.74,3090.66 1409.54,3087.37C1363.8,3080.91 1335.1,3100.98 1319.07,3118.96C1289.48,3152.16 1279.91,3203.05 1287.75,3233.07C1289.1,3238.26 1286.71,3243.7 1281.97,3246.21C1277.24,3248.73 1271.39,3247.65 1267.86,3243.61C1167.98,3129.58 1227.62,3018.71 1271.17,2937.76C1288.22,2906.08 1304.32,2876.15 1308.09,2852.04C1309.14,2845.34 1306.82,2838.83 1301.73,2834.19C1296.55,2829.47 1289.69,2827.75 1282.94,2829.46C1259.87,2835.32 1243.6,2857 1234.02,2874.16C1207.33,2921.96 1197.03,2997.34 1211.08,3042.18C1212.78,3047.6 1210.28,3053.45 1205.2,3055.99C1200.11,3058.53 1193.94,3056.98 1190.63,3052.36C1153.79,3000.84 1140.86,2931.49 1155.18,2862.09C1169.68,2791.8 1210.37,2730.5 1264.02,2698.11C1306.27,2672.6 1359,2673.28 1401.63,2699.89C1466.84,2740.6 1542.98,2771.36 1628.05,2791.39C1635.16,2773.21 1645.24,2761.19 1658.68,2754.76C1662.9,2752.74 1667.93,2753.47 1671.41,2756.6C1733.77,2812.74 1844.19,2840.72 1966.8,2831.43C2085.79,2822.42 2193.75,2779.31 2248.54,2718.93C2252.76,2714.28 2259.92,2713.84 2264.67,2717.94C2277.59,2729.1 2288.68,2744.7 2298.44,2765.51C2383.33,2771.24 2470.59,2750.69 2562.84,2728.97C2628.87,2713.43 2697.14,2697.35 2768.74,2689.93C2784.27,2688.33 2799.53,2690.46 2812.89,2696.11C2835.09,2705.49 2850.54,2722.87 2858.82,2747.76C2860.2,2751.91 2859.12,2756.48 2856.03,2759.58C2852.95,2762.67 2848.38,2763.76 2844.22,2762.39C2825.13,2756.09 2810.95,2757.81 2800.87,2767.65C2767.29,2800.43 2777.58,2920.09 2806.94,3016.83C2808.72,3022.71 2805.6,3028.95 2799.83,3031.06C2794.06,3033.16 2787.66,3030.4 2785.24,3024.76C2759.75,2965.4 2727.62,2936.52 2687.03,2936.52C2686.83,2936.52 2686.63,2936.52 2686.43,2936.53C2669.86,2936.64 2653.01,2942.34 2637.71,2952.99C2583.57,2990.67 2575.17,3046.14 2566.28,3104.88C2558.88,3153.74 2551.23,3204.26 2517,3247.21C2514.16,3250.78 2509.48,3252.33 2505.08,3251.21C2500.67,3250.07 2497.33,3246.46 2496.55,3241.97C2491.34,3211.74 2478.75,3191.56 2458.06,3180.28C2437.57,3169.11 2411.89,3169.07 2389.38,3180.17C2342.01,3203.52 2318.32,3253.37 2293.23,3306.14C2256.96,3382.46 2219.55,3461.4 2106.44,3458.26C2102.61,3458.15 2099.08,3456.15 2097.01,3452.92C2094.95,3449.69 2094.62,3445.64 2096.129,3442.12C2120.06,3386.5 2123.64,3340.07 2106.77,3304.12C2096.629,3282.51 2075.59,3269.46 2053.11,3270.84C1994.55,3274.45 1963.24,3359.82 1947.28,3430.8C1940.93,3459.05 1916.85,3479.21 1888.71,3479.83C1888.25,3479.84 1887.79,3479.84 1887.34,3479.84Z" style="fill:rgb(0,0,114);fill-rule:nonzero;"/>
            <path d="M1933.96,2923.54C1802.27,2923.54 1691.07,2882.77 1628.38,2811.36C1624.86,2807.36 1625.26,2801.27 1629.26,2797.75C1633.27,2794.24 1639.35,2794.64 1642.86,2798.64C1702.56,2866.62 1810.25,2905.14 1938.19,2904.25C2080.44,2903.28 2215.51,2852.13 2282.3,2773.94C2285.76,2769.89 2291.84,2769.42 2295.89,2772.88C2299.94,2776.33 2300.41,2782.42 2296.96,2786.46C2225.61,2869.99 2088.19,2922.5 1938.32,2923.52C1936.86,2923.53 1935.41,2923.54 1933.96,2923.54Z" style="fill:rgb(0,0,114);fill-rule:nonzero;"/>
            <path d="M1262.08,2812.8C1312.47,2782 1374.29,2794.6 1429.2,2801.5C1469.64,2807.59 1509.4,2815.12 1550.06,2818.32C1563.55,2819.5 1577.11,2819.99 1590.76,2819.88C1577.34,2822.42 1563.66,2823.66 1549.96,2824.42C1482.32,2827.71 1414.08,2814.28 1346.92,2815.2C1320.81,2815.85 1294.64,2819.53 1274.8,2832.13C1261.93,2840.19 1249.5,2821.54 1262.08,2812.8Z" style="fill:rgb(0,0,114);fill-rule:nonzero;"/>
            <path d="M1304.75,3100.52C1348.06,3043.07 1417.78,3015.7 1478.59,2982.61C1539.55,2951.22 1596.17,2913.17 1648.88,2868.87C1587.22,2954.5 1487.11,2999.62 1398.99,3051.54C1371.16,3068.53 1343.46,3088.47 1323.42,3114.18C1314.09,3126.58 1295.63,3113.22 1304.75,3100.52Z" style="fill:rgb(0,0,114);fill-rule:nonzero;"/>
            <path d="M1625.92,3341.6C1679.35,3221.1 1695.99,3081.44 1778.87,2974.87C1749.77,3034.94 1729.98,3097.69 1712.62,3161.79C1694.29,3226.13 1678.68,3292.51 1644.66,3351.43C1637.73,3362.77 1620.49,3353.84 1625.92,3341.6Z" style="fill:rgb(0,0,114);fill-rule:nonzero;"/>
            <path d="M2114.01,3324.57C2102.14,3261.08 2063.99,3203.86 2032.91,3147.04C2000.05,3088.67 1966.35,3027.94 1952.55,2961.65C1966.13,2992.55 1982.11,3021.77 1999.29,3050.34C2033.49,3108.1 2073.02,3162.94 2104,3222.81C2119.45,3253.22 2133.21,3285.89 2136.99,3321.9C2137.66,3328.25 2133.05,3333.94 2126.7,3334.61C2120.42,3335.28 2114.81,3330.74 2114.01,3324.57Z" style="fill:rgb(0,0,114);fill-rule:nonzero;"/>
            <path d="M2480.76,3200.49C2394.33,3092.71 2256.03,3047.45 2149.21,2964.11C2143.33,2958.76 2133.32,2950.63 2128.08,2944.63L2118.38,2934.13C2133.02,2946.39 2148.15,2957.56 2164.57,2967.02C2246.69,3015.28 2335.87,3050.58 2413.85,3106.55C2445.3,3128.95 2475.24,3154.78 2499.14,3186.44C2502.99,3191.53 2501.97,3198.79 2496.88,3202.64C2491.81,3206.46 2484.63,3205.48 2480.76,3200.49Z" style="fill:rgb(0,0,114);fill-rule:nonzero;"/>
            <path d="M2258.03,2858.96C2387.88,2879.16 2519.29,2879.2 2649.06,2900.28C2679.62,2905.94 2710.24,2913.96 2738.43,2927.44C2744.31,2929.94 2747.05,2936.73 2744.55,2942.61C2742.05,2948.49 2735.26,2951.23 2729.38,2948.73C2657.83,2916.03 2574.38,2911.12 2496.39,2900.29C2416.44,2890.74 2335.96,2879.82 2258.03,2858.96Z" style="fill:rgb(0,0,114);fill-rule:nonzero;"/>
            <path d="M1421.55,2864.61C1413.43,2864.61 1405.32,2863.64 1397.44,2861.64C1389.32,2859.57 1381.33,2856.41 1374.87,2851.13C1367.34,2844.98 1358.17,2831.38 1372.4,2827.91C1375.31,2827.2 1378.58,2826.92 1382.06,2826.92C1393.99,2826.92 1408.3,2830.25 1418.63,2830.96C1424.91,2831.4 1431.21,2831.83 1437.49,2831.83C1440.13,2831.83 1442.77,2831.76 1445.41,2831.57C1454.42,2830.94 1463.59,2829.04 1472.54,2829.04C1476.79,2829.04 1480.99,2829.47 1485.1,2830.66C1486.31,2831 1487.54,2831.44 1488.4,2832.34C1491.3,2835.35 1488.04,2840.17 1484.77,2842.78C1467.08,2856.97 1444.29,2864.61 1421.55,2864.61Z" style="fill:rgb(255,188,215);fill-rule:nonzero;"/>
            <path d="M1498.05,3062.41C1492.86,3062.41 1487.78,3061.46 1483.17,3059.06C1470.51,3052.46 1467.27,3036.96 1479.86,3030.17C1492.99,3023.09 1505.67,3016.24 1517.9,3007.62C1523.62,3003.59 1588.84,2958.67 1592.41,2958.67C1592.49,2958.67 1592.53,2958.7 1592.55,2958.74C1595.26,2966.32 1593.86,2974.71 1591.61,2982.43C1581.24,3017.92 1552.33,3047.55 1516.86,3059.05C1510.84,3061 1504.36,3062.41 1498.05,3062.41Z" style="fill:rgb(255,188,215);fill-rule:nonzero;"/>
            <path d="M1623.25,2953.08C1622.86,2953.08 1622.47,2953.06 1622.08,2953.03C1607.38,2951.64 1611.48,2934.37 1620.38,2928.4C1622.88,2926.72 1625.39,2925.98 1627.71,2925.98C1635.86,2925.98 1641.69,2935.04 1636.96,2944.13C1634.32,2949.2 1628.95,2953.08 1623.25,2953.08Z" style="fill:rgb(255,188,215);fill-rule:nonzero;"/>
            <path d="M1775.44,3249.75C1774.93,3249.75 1774.42,3249.7 1773.92,3249.58C1771.27,3248.97 1769.29,3246.88 1767.21,3245.15C1757.32,3236.95 1743.45,3236.07 1730.69,3234.2C1728.15,3233.82 1725.49,3233.34 1723.54,3231.68C1719.89,3228.56 1720.36,3222.89 1721.42,3218.23C1723.47,3209.25 1726.54,3200.54 1729.61,3191.85C1737.69,3168.94 1745.77,3146.03 1753.86,3123.12C1757.32,3113.3 1763.87,3076.24 1776.24,3075.77L1776.61,3075.77C1790.96,3075.77 1789.17,3108.78 1789.82,3118.1C1792.54,3156.59 1789.29,3195.18 1786.02,3233.53C1785.7,3237.33 1785.33,3241.27 1783.44,3244.59C1781.8,3247.46 1778.68,3249.75 1775.44,3249.75Z" style="fill:rgb(255,188,215);fill-rule:nonzero;"/>
            <path d="M2032.05,3204.41C2031.24,3204.41 2030.37,3204.12 2029.61,3203.8C2004.23,3193.07 1990.48,3166.13 1980.31,3140.73C1976.6,3131.49 1973.08,3122.13 1971.09,3112.38C1968.48,3099.59 1966.14,3080.68 1969.92,3067.93C1971.12,3063.88 1972.39,3062.11 1973.78,3062.11C1975.32,3062.11 1977.01,3064.29 1978.9,3067.97C1982.71,3075.36 1985.8,3083.24 1989.22,3090.82C2002.34,3119.88 2015.46,3148.94 2028.58,3178.01C2031.93,3185.43 2035.36,3193.28 2034.58,3201.38C2034.49,3202.3 2034.3,3203.31 2033.59,3203.91C2033.15,3204.27 2032.62,3204.41 2032.05,3204.41Z" style="fill:rgb(255,188,215);fill-rule:nonzero;"/>
            <path d="M2294.58,3131.06C2290.58,3131.06 2286.7,3129.79 2282.95,3128.39C2248.69,3115.59 2219.55,3090.5 2200.98,3059.38C2196.59,3052.04 2179,3022.21 2195.08,3022.21C2196.55,3022.21 2198.3,3022.46 2200.37,3023C2209.75,3025.44 2220.17,3032.9 2228.82,3037.36C2238.89,3042.55 2248.82,3048.02 2258.6,3053.75C2280.71,3066.73 2302,3081.07 2322.3,3096.68C2328.35,3101.32 2334.38,3106.15 2338.96,3112.21C2339.68,3113.17 2340.39,3114.42 2339.87,3115.5C2339.48,3116.29 2338.57,3116.66 2337.74,3116.96C2327.42,3120.7 2317.1,3124.44 2306.78,3128.18C2302.91,3129.59 2298.94,3131.01 2294.81,3131.06L2294.58,3131.06Z" style="fill:rgb(255,188,215);fill-rule:nonzero;"/>
            <path d="M2513.99,2957.61C2507.81,2957.61 2501.46,2956.39 2495.4,2955.08C2472.66,2950.17 2450.04,2944.19 2428.5,2935.39C2410.7,2928.11 2381.47,2916.28 2371.01,2899.44C2372.58,2897.98 2374.89,2897.44 2377.54,2897.44C2383.85,2897.44 2392.06,2900.48 2396.58,2901.33C2407.27,2903.34 2417.96,2905.35 2428.65,2907.37C2437.02,2908.94 2445.4,2910.52 2453.77,2912.09C2461.25,2913.5 2468.73,2914.91 2476.2,2916.31C2497.96,2920.41 2519.72,2924.5 2541.48,2928.6C2543.74,2929.02 2546.28,2929.64 2547.42,2931.62C2549.02,2934.41 2546.8,2937.77 2544.7,2940.21C2539.84,2945.87 2534.76,2951.69 2527.97,2954.83C2523.57,2956.87 2518.83,2957.61 2513.99,2957.61Z" style="fill:rgb(255,188,215);fill-rule:nonzero;"/>
            <path d="M2585.48,2789.55L2584.91,2789.55C2568.38,2789.53 2551.86,2788.66 2535.36,2787.78C2526.9,2787.33 2499.19,2789.28 2496.32,2779.23C2510.05,2773.82 2527.65,2772.99 2542.31,2770.3C2558.76,2767.29 2575.2,2764.27 2591.64,2761.26C2624.22,2755.28 2656.79,2749.3 2689.37,2743.33C2690.43,2743.13 2691.58,2742.96 2692.69,2742.96C2694.29,2742.96 2695.8,2743.32 2696.86,2744.45C2699.18,2746.94 2697.43,2750.94 2695.42,2753.68C2687.94,2763.88 2677.78,2772.13 2666.22,2777.4C2658.3,2781.01 2649.8,2783.21 2641.25,2784.87C2622.92,2788.44 2604.17,2789.55 2585.48,2789.55Z" style="fill:rgb(255,188,215);fill-rule:nonzero;"/>
            <path d="M2656.5,2719.7L2555.1,2742.65C2537.5,2817.5 2486.05,2818.2 2472.5,2757.5C2471.65,2756.6 2470.8,2755.75 2469.95,2754.85C2388.45,2669.7 2300.8,2588.7 2207.9,2511.2C2204.6,2471.15 2205.15,2433.7 2210.95,2399.75L2198.95,2398.85L2209.3,2395.2C2227.35,2407.5 2245.7,2419.55 2264.25,2431.25C2436.95,2540.85 2621.3,2627.4 2656.5,2719.7Z" style="fill:white;fill-rule:nonzero;"/>
            <path d="M2469.95,2754.85C2388.45,2669.7 2300.8,2588.7 2207.9,2511.2C2204.6,2471.15 2205.15,2433.7 2210.95,2399.75L2198.95,2398.85L2209.3,2395.2C2227.35,2407.5 2245.7,2419.55 2264.25,2431.25C2220,2504.95 2439.85,2624.9 2469.95,2754.85Z" style="fill:rgb(223,232,244);fill-rule:nonzero;"/>
            <path d="M2219.95,2504.98C2314.58,2584.17 2402.58,2666.21 2481.54,2748.86C2483.11,2750.51 2484.2,2752.56 2484.7,2754.78C2489.27,2775.25 2498.93,2788.51 2509.33,2788.57L2509.39,2788.57C2520.39,2788.57 2535,2773.51 2542.93,2739.79C2544.03,2735.14 2547.68,2731.52 2552.34,2730.46L2638.65,2710.92C2604.87,2649.43 2501.29,2588.04 2382.6,2517.69C2329.21,2486.04 2274.18,2453.43 2220.93,2418.09C2217.86,2444.03 2217.55,2472.67 2219.95,2504.98ZM2509.42,2813.57L2509.19,2813.57C2487.17,2813.45 2468.96,2794.44 2461.13,2763.7C2382.29,2681.36 2294.41,2599.66 2199.89,2520.8C2197.32,2518.65 2195.72,2515.57 2195.44,2512.23C2192.33,2474.43 2192.7,2441.19 2196.61,2411.13C2191.37,2410.13 2187.27,2405.88 2186.56,2400.49C2185.78,2394.63 2189.22,2389.03 2194.79,2387.06L2205.14,2383.41C2208.89,2382.09 2213.05,2382.63 2216.34,2384.87C2274.67,2424.66 2336.02,2461.02 2395.35,2496.19C2526.57,2573.96 2639.9,2641.13 2668.18,2715.24C2669.47,2718.63 2669.23,2722.41 2667.52,2725.6C2665.81,2728.8 2662.79,2731.09 2659.26,2731.89L2565.29,2753.16C2554.57,2791.17 2534.02,2813.57 2509.42,2813.57Z" style="fill:rgb(0,0,114);fill-rule:nonzero;"/>
            <path d="M1719.5,2399.75C1725.3,2433.7 1725.85,2471.15 1722.55,2511.2C1679.15,2545.65 1633,2585.55 1585.9,2631.4C1544.25,2672 1507.35,2711.85 1474.8,2749.8C1474.05,2750.7 1473.25,2751.6 1472.5,2752.5C1471.85,2770.5 1462.2,2786.15 1447.5,2792.5C1445.35,2793.4 1430.75,2799.5 1417.5,2792.5C1403.65,2785.2 1400.5,2768.5 1397.5,2752.5C1395.75,2743.3 1394.4,2729.45 1397.5,2712.5C1390.4,2706.75 1376.9,2697.35 1357.5,2692.5C1335.2,2686.95 1316.65,2690.25 1307.5,2692.5C1316.15,2681.8 1329.7,2665.8 1347.5,2647.5C1378.4,2615.75 1408.85,2590.85 1442.3,2566.8C1495.9,2528.2 1521.5,2517.55 1597.5,2472.5C1618.35,2460.1 1646.7,2443.05 1680.4,2421.55C1693.25,2413.4 1706.85,2404.65 1721.15,2395.2L1731.5,2398.85L1719.5,2399.75Z" style="fill:white;fill-rule:nonzero;"/>
            <path d="M1719.5,2399.75C1725.3,2433.7 1725.85,2471.15 1722.55,2511.2C1679.15,2545.65 1633,2585.55 1585.9,2631.4C1544.25,2672 1507.35,2711.85 1474.8,2749.8L1470,2750C1470,2645 1695,2535 1680.4,2421.55C1693.25,2413.4 1706.85,2404.65 1721.15,2395.2L1731.5,2398.85L1719.5,2399.75Z" style="fill:rgb(223,232,244);fill-rule:nonzero;"/>
            <path d="M1337.06,2677.03C1344.37,2677.31 1352.26,2678.3 1360.53,2680.37C1376.79,2684.44 1392.3,2692.19 1405.37,2702.79C1408.92,2705.66 1410.61,2710.24 1409.8,2714.73C1407.62,2726.73 1407.62,2738.66 1409.78,2750.19C1412.37,2763.96 1414.82,2776.95 1423.33,2781.44C1431.32,2785.66 1441.41,2781.52 1442.53,2781.03C1452.67,2776.64 1459.53,2765.26 1460.01,2752.05C1460.11,2749.23 1461.16,2746.53 1462.99,2744.38C1499.02,2702.19 1537.43,2661.17 1577.18,2622.47C1619.48,2581.28 1664.32,2541.71 1710.51,2504.81C1712.91,2472.42 1712.58,2443.74 1709.48,2417.75C1674.35,2440.51 1638.92,2462.49 1603.87,2483.25C1579.26,2497.84 1560.12,2508.71 1543.24,2518.31C1508.39,2538.12 1485.36,2551.2 1449.57,2576.95C1412.75,2603.45 1384.03,2627.89 1356.45,2656.22C1349.86,2663 1343.38,2669.95 1337.06,2677.03ZM1431.51,2808.33C1425.32,2808.33 1418.44,2807.13 1411.67,2803.56C1392.48,2793.43 1388.45,2772.02 1385.22,2754.82C1382.95,2742.78 1382.56,2730.43 1384.03,2718.02C1375.07,2711.84 1364.97,2707.25 1354.47,2704.63C1336.37,2700.11 1320.58,2702.14 1310.51,2704.63C1305.29,2705.92 1299.83,2703.74 1296.95,2699.21C1294.07,2694.67 1294.4,2688.8 1297.79,2684.63C1310.58,2668.85 1324.29,2653.42 1338.54,2638.78C1367.18,2609.37 1396.92,2584.04 1434.97,2556.66C1471.85,2530.13 1495.33,2516.78 1530.88,2496.58C1547.68,2487.03 1566.71,2476.21 1591.13,2461.74C1632.02,2437.52 1673.45,2411.62 1714.28,2384.76C1717.55,2382.61 1721.63,2382.11 1725.31,2383.41L1735.66,2387.06C1741.23,2389.03 1744.67,2394.63 1743.89,2400.49C1743.18,2405.88 1739.08,2410.13 1733.84,2411.13C1737.75,2441.19 1738.12,2474.43 1735.01,2512.23C1734.72,2515.67 1733.03,2518.84 1730.32,2520.99C1683.28,2558.34 1637.62,2598.51 1594.62,2640.38C1556.4,2677.6 1519.42,2716.99 1484.66,2757.51C1482.42,2778.39 1470.12,2796.32 1452.46,2803.97C1449.31,2805.34 1441.28,2808.33 1431.51,2808.33Z" style="fill:rgb(0,0,114);fill-rule:nonzero;"/>
            <path d="M2207.5,1387.99C2218.55,1197.59 2152.62,185.5 2556.45,193.113C2963.74,215.541 2572.1,1219.53 2387.99,1473.12L2207.5,1387.99Z" style="fill:white;fill-rule:nonzero;"/>
            <path d="M2207.5,1387.99C2218.55,1197.59 2152.62,185.5 2556.45,193.113C2963.74,215.541 2572.1,1219.53 2387.99,1473.12L2207.5,1387.99Z" style="fill:white;fill-rule:nonzero;"/>
            <path d="M2542.39,1185C2488.25,1308.27 2432.14,1412.31 2387.98,1473.13L2207.5,1387.98C2210.5,1336.28 2207.83,1223.92 2210.4,1087.87C2217.38,723.031 2262.31,187.558 2556.45,193.1C2866.04,210.156 2714.03,794.328 2542.39,1185Z" style="fill:white;fill-rule:nonzero;"/>
            <path d="M2542.39,1185C2488.25,1308.27 2432.14,1412.31 2387.98,1473.13L2207.5,1387.98C2210.5,1336.28 2207.83,1223.92 2210.4,1087.87C2233.17,1109.6 2270.69,1136.1 2303.4,1077.85C2333.01,1025.15 2489.19,1137.63 2489.19,1137.63C2489.19,1137.63 2460.25,1231.2 2542.39,1185Z" style="fill:rgb(223,232,244);fill-rule:nonzero;"/>
            <path d="M2382.4,1340.11C2353.52,1344.32 2304.7,1402.51 2299.21,1266.72C2299.21,886.467 2349.56,362.176 2552.24,362.176C2816.87,362.176 2459.71,1294.25 2382.4,1340.11Z" style="fill:rgb(249,172,188);fill-rule:nonzero;"/>
            <path d="M2445.59,1240.84C2419.02,1295.35 2396.23,1331.9 2382.41,1340.11C2353.53,1344.32 2304.7,1402.5 2299.19,1266.71C2299.19,886.455 2349.56,362.166 2552.24,362.166C2607.48,362.166 2635.62,402.789 2644.87,467.478C2672.04,657.273 2536.59,1054.22 2445.59,1240.84Z" style="fill:rgb(249,172,188);fill-rule:nonzero;"/>
            <path d="M2644.87,467.478C2623.07,434.132 2590.89,403.356 2548.74,411.367C2407.38,438.171 2337.31,976.58 2384.04,1197.58C2395.12,1249.86 2421.99,1251.59 2445.59,1240.84C2419.02,1295.35 2396.23,1331.9 2382.41,1340.11C2353.53,1344.32 2304.7,1402.5 2299.19,1266.71C2299.19,886.455 2349.56,362.166 2552.24,362.166C2607.48,362.166 2635.62,402.789 2644.87,467.478Z" style="fill:rgb(244,146,169);fill-rule:nonzero;"/>
            <path d="M2382.4,1340.11L2382.45,1340.11L2382.4,1340.11ZM2314.21,1266.42C2316.68,1326.72 2327.84,1338.11 2331.21,1340.17C2336.07,1343.15 2346.88,1338.14 2356.41,1333.74C2362.96,1330.7 2369.71,1327.58 2376.52,1325.98C2401.77,1306.16 2475.29,1159.62 2543.32,954.118C2620.33,721.545 2649.91,534.997 2624.49,442.301C2612.47,398.481 2588.84,377.177 2552.24,377.177C2449.24,377.177 2393.24,539.118 2364.39,674.97C2320.76,880.468 2314.22,1133.61 2314.21,1266.42ZM2334.7,1371.08C2328.32,1371.08 2321.85,1369.61 2315.57,1365.77C2296.16,1353.91 2286.5,1323.55 2284.22,1267.33C2284.21,1267.13 2284.21,1266.93 2284.21,1266.73C2284.21,1132.82 2290.81,877.07 2335.05,668.739C2380.35,455.365 2453.43,347.177 2552.24,347.177C2587.49,347.177 2633.65,362.304 2653.42,434.367C2691.69,573.91 2609.09,850.924 2571.81,963.547C2514.76,1135.83 2431.18,1328.61 2390.05,1353.01C2388.37,1354.01 2386.5,1354.67 2384.56,1354.95C2380.81,1355.5 2374.81,1358.28 2369.01,1360.96C2359.27,1365.47 2347.16,1371.08 2334.7,1371.08Z" style="fill:rgb(0,0,114);fill-rule:nonzero;"/>
            <path d="M2400.13,1481.93L2375.85,1464.31C2528.35,1254.25 2810.57,548.281 2691.12,297.101C2664.36,240.83 2620.12,211.715 2555.9,208.104C2499.81,207.089 2452.14,226.571 2410.31,267.587C2224.57,449.762 2224.26,999.152 2224.12,1263.17C2224.09,1318.11 2224.06,1361.51 2222.47,1388.86L2192.52,1387.12C2194.06,1360.63 2194.09,1317.62 2194.12,1263.16C2194.27,995.048 2194.58,437.157 2389.31,246.169C2436.58,199.809 2493.01,176.938 2556.74,178.115L2557.28,178.134C2632.56,182.279 2686.71,217.973 2718.21,284.217C2793.73,443.012 2716.65,742.467 2663.98,906.838C2584.29,1155.57 2470.92,1384.42 2400.13,1481.93Z" style="fill:rgb(0,0,114);fill-rule:nonzero;"/>
            <path d="M1761.11,1422.55C1750.32,1236.72 1814.67,248.899 1420.52,256.329C1023,278.22 1405.25,1258.13 1584.94,1505.65L1761.11,1422.55Z" style="fill:white;fill-rule:nonzero;"/>
            <path d="M1761.11,1422.55C1750.32,1236.72 1814.67,248.899 1420.52,256.329C1023,278.22 1405.25,1258.13 1584.94,1505.65L1761.11,1422.55Z" style="fill:white;fill-rule:nonzero;"/>
            <path d="M1434.24,1224.43C1487.09,1344.75 1541.85,1446.3 1584.95,1505.66L1761.11,1422.55C1758.18,1372.08 1760.78,1262.42 1758.27,1129.63C1751.47,773.541 1707.61,250.908 1420.53,256.316C1118.36,272.964 1266.72,843.13 1434.24,1224.43Z" style="fill:white;fill-rule:nonzero;"/>
            <path d="M1434.24,1224.43C1487.09,1344.75 1541.85,1446.3 1584.95,1505.66L1761.11,1422.55C1758.18,1372.08 1760.78,1262.42 1758.27,1129.63C1736.06,1150.84 1699.44,1176.71 1667.51,1119.86C1638.61,1068.41 1486.17,1178.2 1486.17,1178.2C1486.17,1178.2 1514.42,1269.52 1434.24,1224.43Z" style="fill:rgb(223,232,244);fill-rule:nonzero;"/>
            <path d="M1590.4,1375.83C1618.59,1379.94 1666.24,1436.73 1671.6,1304.2C1671.6,933.059 1622.45,421.339 1424.63,421.339C1166.35,421.339 1514.94,1331.07 1590.4,1375.83Z" style="fill:rgb(249,172,188);fill-rule:nonzero;"/>
            <path d="M1528.72,1278.94C1554.66,1332.14 1576.91,1367.82 1590.39,1375.83C1618.58,1379.93 1666.24,1436.72 1671.61,1304.19C1671.61,933.048 1622.45,421.329 1424.63,421.329C1370.71,421.329 1343.25,460.977 1334.23,524.116C1307.71,709.36 1439.91,1096.79 1528.72,1278.94Z" style="fill:rgb(249,172,188);fill-rule:nonzero;"/>
            <path d="M1334.23,524.116C1355.5,491.569 1386.91,461.531 1428.05,469.35C1566.03,495.511 1634.41,1021.01 1588.8,1236.72C1577.98,1287.74 1551.76,1289.43 1528.72,1278.94C1554.66,1332.14 1576.91,1367.82 1590.39,1375.83C1618.58,1379.93 1666.24,1436.72 1671.61,1304.19C1671.61,933.048 1622.45,421.329 1424.63,421.329C1370.71,421.329 1343.25,460.977 1334.23,524.116Z" style="fill:rgb(244,146,169);fill-rule:nonzero;"/>
            <path d="M1596.3,1361.7C1602.95,1363.28 1609.53,1366.32 1615.92,1369.28C1624.68,1373.33 1635.58,1378.38 1640.18,1375.57C1643.43,1373.59 1654.19,1362.56 1656.6,1303.89C1656.57,884.43 1595.62,436.34 1424.63,436.34C1388.61,436.34 1366.31,456.454 1354.47,499.638C1329.67,590.043 1358.54,772.043 1433.68,998.974C1500.03,1199.38 1571.67,1342.28 1596.3,1361.7ZM1636.96,1406.42C1624.73,1406.42 1612.86,1400.92 1603.32,1396.51C1597.68,1393.89 1591.85,1391.19 1588.24,1390.67C1586.3,1390.38 1584.44,1389.73 1582.75,1388.72C1542.53,1364.87 1460.89,1176.62 1405.19,1008.4C1368.79,898.449 1288.16,627.995 1325.53,491.703C1344.88,421.149 1390.1,406.34 1424.63,406.34C1521.27,406.34 1592.71,512.03 1636.97,720.475C1680.15,923.84 1686.6,1173.49 1686.6,1304.2C1686.6,1304.4 1686.6,1304.61 1686.59,1304.81C1684.36,1359.81 1674.87,1389.54 1655.82,1401.17C1649.62,1404.96 1643.24,1406.42 1636.96,1406.42Z" style="fill:rgb(0,0,114);fill-rule:nonzero;"/>
            <path d="M1572.8,1514.46C1416.63,1299.33 1139.2,603.986 1262.32,345.097C1293.13,280.312 1346.08,245.407 1419.7,241.352L1420.24,241.332C1482.64,240.18 1537.7,262.536 1583.91,307.858C1774.08,494.369 1774.38,1038.98 1774.53,1300.71C1774.56,1353.86 1774.58,1395.84 1776.09,1421.68L1746.13,1423.42C1744.58,1396.72 1744.56,1354.36 1744.53,1300.73C1744.39,1043.09 1744.09,506.974 1562.91,329.277C1522.16,289.316 1475.74,270.324 1421.08,271.322C1358.54,274.84 1315.47,303.19 1289.41,357.98C1172.87,603.027 1448.28,1291.86 1597.08,1496.83L1572.8,1514.46Z" style="fill:rgb(0,0,114);fill-rule:nonzero;"/>
            <path d="M2079.46,2414.14C2428.68,2414.14 2705.31,2225.54 2603.62,1948.28C2630.24,1364.44 2271.67,1228.13 1980.51,1228.13C1689.34,1228.13 1330.77,1364.44 1357.39,1948.28C1255.7,2225.54 1532.33,2414.14 1881.55,2414.14L2079.46,2414.14Z" style="fill:white;fill-rule:nonzero;"/>
            <path d="M2619.26,2116.39C2580.85,2298.99 2352.32,2414.12 2079.47,2414.12L1881.54,2414.12C1612.6,2414.12 1386.75,2302.29 1343.5,2124.22C1414.4,2277.82 1665.26,2362.4 1980.51,2362.4C2295.75,2362.4 2552.13,2274.61 2619.26,2116.39Z" style="fill:rgb(223,232,244);fill-rule:nonzero;"/>
            <path d="M2079.46,2414.14C2263.37,2395.64 2507.82,2343.47 2591.73,2159.29C2620.78,2093.22 2616.55,2017.17 2591.07,1950.32L2591.14,1947.71L2592.01,1913.83C2599.42,1647.08 2514.17,1385.44 2244.45,1285.33C2081.399,1225.22 1879.61,1225.24 1716.56,1285.33C1473.13,1375.26 1376.73,1600.95 1369.27,1846.11C1368.79,1858.26 1368.78,1885.17 1368.56,1896.89C1368.74,1907.52 1369.66,1936.67 1369.87,1947.71L1369.94,1950.32L1369.12,1952.58C1342.66,2022.72 1340.65,2102.85 1374.38,2170.57C1432.68,2285.77 1557.51,2345.96 1677.67,2378.81C1743.78,2396.97 1812.13,2406.65 1881.55,2414.14C1811.77,2420.87 1740.74,2416.82 1672.11,2401.61C1540.24,2372.4 1399.99,2300.43 1344.75,2169.64C1314.32,2098.1 1318.44,2015.54 1345.65,1943.97L1344.9,1948.85L1344.01,1914.32C1343.07,1894.56 1344.08,1865.2 1344.28,1845.22C1352.01,1589.61 1454.64,1355.62 1707.71,1261.95C1876.67,1199.66 2084.34,1199.68 2253.31,1261.95C2527.2,1364.1 2620.6,1623.85 2617.45,1897.06L2617.01,1914.32L2616.11,1948.85L2615.36,1943.97C2641.86,2013.54 2646.26,2093.01 2618.95,2163.36C2538.35,2360.73 2274.59,2433.65 2079.46,2414.14Z" style="fill:rgb(0,0,114);fill-rule:nonzero;"/>
            <path d="M1670.72,2076.111C1670.76,2135.36 1606.85,2183.44 1527.98,2183.49C1449.1,2183.54 1385.13,2135.54 1385.1,2076.28C1385.06,2017.03 1448.97,1968.95 1527.84,1968.9C1606.72,1968.85 1670.69,2016.85 1670.72,2076.111Z" style="fill:rgb(249,172,188);fill-rule:nonzero;"/>
            <path d="M2575.69,2076.111C2575.72,2135.36 2511.81,2183.44 2432.94,2183.49C2354.06,2183.54 2290.09,2135.54 2290.06,2076.28C2290.02,2017.03 2353.93,1968.95 2432.81,1968.9C2511.68,1968.85 2575.65,2016.85 2575.69,2076.111Z" style="fill:rgb(249,172,188);fill-rule:nonzero;"/>
            <path d="M1490,1431.52C1643.22,1236.29 1871.73,1262.96 1894.71,1096.82C1894.71,1096.82 1971.38,1148.01 1957.99,1221.54C1979.91,1204.31 2008.89,1172.53 2118.03,1187.95C2172.5,1195.64 2210.42,1187.04 2234.04,1178.44C2252.2,1171.83 2261.9,1165.22 2264.17,1166.01C2269.37,1167.84 2269.5,1285.62 2133.21,1312.75L1490,1431.52Z" style="fill:white;fill-rule:nonzero;"/>
            <path d="M1480.16,1423.8C1627.38,1232.19 1862.54,1249.71 1882.32,1095.11C1883.21,1086.03 1894.32,1081.09 1901.65,1086.42C1944.72,1117.12 1980.59,1168.63 1970.28,1223.78L1950.26,1211.71C1958.44,1205.13 1967.97,1197 1978.77,1190.95C2015.61,1169.75 2060.12,1169.49 2100.6,1173.26C2137.67,1178.54 2176.43,1181.83 2212.74,1171.97C2225.43,1168.77 2237.86,1163.91 2249.66,1158.18C2254.36,1156.17 2257.7,1153.58 2264.11,1153.46C2278.7,1154.06 2278.91,1171.26 2278.18,1181.87C2276.55,1206.63 2268.93,1230.51 2254.44,1250.56C2227.08,1289.33 2179.39,1310.95 2133.21,1312.75C2185.36,1295.08 2228.42,1262.09 2245.96,1209.3C2250.31,1196.94 2253.89,1183.7 2252.93,1170.84C2252.93,1170.87 2252.93,1170.85 2252.93,1170.84C2252.92,1170.81 2252.93,1170.78 2252.98,1171C2252.98,1171.13 2254.19,1173.75 2254.89,1174.31C2256.57,1176.65 2260.52,1178.44 2263.41,1178.45C2265.45,1178.43 2265.54,1178.26 2265.96,1178.18C2266.47,1178.01 2265.05,1178.54 2264.07,1179.02C2218.29,1202.94 2164.61,1207.75 2114.3,1200.09C2106.25,1198.97 2090.05,1197.36 2081.94,1196.89C2038.19,1193.97 1998.45,1200.64 1965.71,1231.37C1957.15,1238.62 1943.5,1230.53 1945.63,1219.63C1947.5,1208.95 1947.54,1198.04 1945.29,1187.38C1938.43,1154.68 1914.29,1126.59 1887.77,1107.21L1907.09,1098.53C1901.54,1147.47 1871.12,1190.37 1831.02,1217.32C1755.93,1267.82 1667.28,1294.66 1594.92,1348.65C1559.13,1374.31 1526.89,1404.64 1499.83,1439.24L1480.16,1423.8Z" style="fill:rgb(0,0,114);fill-rule:nonzero;"/>
            <path d="M1900.03,1266.78C1921.69,1253.2 1936.24,1235.66 1948.5,1213.4L1967.47,1229.68C1949.05,1246.65 1924.82,1261.45 1900.03,1266.78Z" style="fill:rgb(0,0,114);fill-rule:nonzero;"/>
            <path d="M1548.91,1834.53C1602.67,1915.68 1694.44,1967.58 1780.39,1899.25C1805.76,1878.55 1823.83,1850.75 1841.34,1821.86C1842.38,1858.7 1830.53,1895.85 1806.61,1924.95C1718.18,2028.49 1561.59,1962.24 1548.91,1834.53Z" style="fill:rgb(0,0,114);fill-rule:nonzero;"/>
            <path d="M1648.12,1490.94C1648.12,1490.94 1717.57,1416.76 1766.58,1454.13C1783.86,1467.31 1779.72,1502.34 1755.95,1510.03C1706.98,1525.88 1648.12,1490.94 1648.12,1490.94Z" style="fill:rgb(0,0,114);fill-rule:nonzero;"/>
            <path d="M2412.03,1834C2399.48,1961.8 2242.96,2028.12 2154.45,1924.73C2130.49,1895.66 2118.59,1858.52 2119.59,1821.69C2137.12,1850.55 2155.24,1878.34 2180.64,1899.01C2266.85,1967.25 2358.29,1915.22 2412.03,1834Z" style="fill:rgb(0,0,114);fill-rule:nonzero;"/>
            <path d="M2312.89,1490.94C2312.89,1490.94 2243.44,1416.76 2194.43,1454.13C2177.15,1467.31 2181.29,1502.34 2205.06,1510.03C2254.03,1525.88 2312.89,1490.94 2312.89,1490.94Z" style="fill:rgb(0,0,114);fill-rule:nonzero;"/>
            <path d="M1524.91,2004.84C1485.08,1999.75 1446.21,1987.84 1410.43,1969.59C1450.27,1974.63 1489.12,1986.65 1524.91,2004.84Z" style="fill:rgb(0,0,114);fill-rule:nonzero;"/>
            <path d="M1507.81,2087.371C1464.21,2091.371 1420.04,2088.53 1377.34,2078.81C1420.94,2074.75 1465.11,2077.71 1507.81,2087.371Z" style="fill:rgb(0,0,114);fill-rule:nonzero;"/>
            <path d="M1507.81,2170.02C1474.49,2181.22 1439.06,2185.84 1403.98,2183.39C1437.29,2172.14 1472.74,2167.63 1507.81,2170.02Z" style="fill:rgb(0,0,114);fill-rule:nonzero;"/>
            <path d="M2436.13,2004.84C2471.92,1986.65 2510.76,1974.63 2550.6,1969.59C2514.83,1987.84 2475.95,1999.75 2436.13,2004.84Z" style="fill:rgb(0,0,114);fill-rule:nonzero;"/>
            <path d="M2453.23,2087.371C2495.93,2077.71 2540.09,2074.75 2583.69,2078.81C2540.99,2088.53 2496.83,2091.371 2453.23,2087.371Z" style="fill:rgb(0,0,114);fill-rule:nonzero;"/>
            <path d="M2453.23,2170.02C2488.3,2167.63 2523.74,2172.14 2557.05,2183.39C2521.98,2185.84 2486.55,2181.22 2453.23,2170.02Z" style="fill:rgb(0,0,114);fill-rule:nonzero;"/>
            <path d="M2050.919,1932.82C2037.59,1970.12 1980.51,1991.14 1980.51,1991.14C1980.51,1991.14 1923.42,1970.12 1910.09,1932.82C1900.59,1906.14 1967.75,1901.78 1980.51,1901.78C1993.26,1901.78 2060.429,1906.14 2050.919,1932.82Z" style="fill:rgb(0,0,114);fill-rule:nonzero;"/>
            <path d="M2009.43,1976.72C2000.5,1983.94 1986.88,1995.02 1980.51,2025.4L1980.48,2025.54L1980.45,2025.43C1974.08,1995.02 1960.46,1983.94 1951.53,1976.72L1980.45,1971.29L1980.51,1971.29L2009.43,1976.72Z" style="fill:rgb(0,0,114);fill-rule:nonzero;"/>
            <path d="M1980.51,2025.4L1980.51,2025.69L1980.48,2025.54L1980.51,2025.4Z" style="fill:rgb(81,39,23);fill-rule:nonzero;"/>
            <path d="M1980.48,2025.54L1980.45,2025.66L1980.45,2025.43L1980.48,2025.54Z" style="fill:rgb(81,39,23);fill-rule:nonzero;"/>
            <path d="M1980.59,1924.63L1980.42,1924.63C1978.84,1924.63 1956.64,1924.47 1951.31,1915.39C1947.37,1908.65 1975.22,1907.55 1980.51,1907.55C1985.79,1907.55 2013.64,1908.65 2009.7,1915.39C2004.37,1924.47 1982.17,1924.63 1980.59,1924.63Z" style="fill:rgb(128,128,185);fill-rule:nonzero;"/>
            <path d="M1980.51,2195.42C1924.73,2195.42 1922.13,2159.51 1922.13,2090.69L1940.28,2090.69C1940.28,2165.95 1945.54,2177.28 1980.51,2177.28C2015.48,2177.28 2020.74,2165.95 2020.74,2090.69L2038.89,2090.69C2038.89,2159.51 2036.29,2195.42 1980.51,2195.42Z" style="fill:rgb(0,0,114);fill-rule:nonzero;"/>
            <path d="M1980.39,2164.54L1971.32,2110.92L1989.46,2110.92L1980.39,2164.54Z" style="fill:rgb(0,0,114);fill-rule:nonzero;"/>
            <path d="M1884.95,2086.48C1884.95,2086.48 1924.72,2129.77 1980.38,2129.77C2036.04,2129.77 2075.929,2086.48 2075.929,2086.48" style="fill:white;fill-rule:nonzero;"/>
            <path d="M1884.95,2086.48C1955.45,2127.72 2005.46,2127.42 2075.94,2086.48C2056.87,2119.68 2019.34,2141.47 1980.44,2141.86C1941.54,2141.47 1904.01,2119.68 1884.95,2086.48Z" style="fill:rgb(0,0,114);fill-rule:nonzero;"/>
            <path d="M2338.12,1336.05C2381.48,1339.38 2425.03,1395.02 2493.96,1412.91C2513.87,1418.08 2534.54,1408.32 2544.05,1390.08C2569.49,1341.27 2575.76,1290.29 2554.13,1256.57C2573.8,1213.66 2585.46,1168.66 2572.15,1134.02C2563.24,1110.83 2540.63,1095.97 2515.83,1094.6C2454.82,1091.21 2394.05,1147.82 2348.68,1170.87C2330.97,1222.08 2327.04,1277.03 2338.12,1336.05Z" style="fill:rgb(255,120,175);fill-rule:nonzero;"/>
            <path d="M2433.11,1375.85C2404.21,1364.49 2380.16,1338.85 2375.26,1308.19C2370.35,1277.53 2387.58,1243.46 2416.86,1233.13C2394.89,1235.27 2375.96,1212.8 2376.33,1190.73C2376.69,1168.65 2391.8,1149.04 2410.17,1136.79C2396.96,1142.46 2383.76,1148.12 2370.55,1153.79C2366.48,1155.54 2362.32,1157.34 2359.09,1160.37C2354,1165.15 2351.94,1172.27 2350.28,1179.06C2338.33,1228.04 2336.1,1279.37 2343.77,1329.2C2344.19,1331.95 2344.68,1334.79 2346.27,1337.07C2348.13,1339.72 2351.19,1341.2 2354.12,1342.58C2377.14,1353.4 2400.15,1364.22 2423.17,1375.04" style="fill:rgb(237,67,144);fill-rule:nonzero;"/>
            <path d="M2348.88,1325.03C2369.61,1329.51 2389.32,1342.62 2411.67,1357.48C2436.14,1373.75 2463.88,1392.19 2497.1,1400.81C2511.23,1404.48 2525.98,1397.69 2532.97,1384.3C2557.74,1336.77 2561.72,1291.55 2543.61,1263.32C2541.31,1259.74 2541,1255.24 2542.77,1251.37C2564.81,1203.27 2570.77,1165.29 2560.48,1138.5C2553.58,1120.56 2535.79,1108.22 2515.13,1107.07C2475.37,1104.87 2433.76,1132.05 2397.06,1156.04C2383.67,1164.79 2370.95,1173.1 2358.93,1179.61C2343.99,1225.31 2340.61,1274.16 2348.88,1325.03ZM2504.88,1426.81C2500.22,1426.81 2495.5,1426.22 2490.82,1425.01C2453.53,1415.33 2423.94,1395.66 2397.83,1378.3C2374.9,1363.05 2355.1,1349.89 2337.16,1348.51C2331.52,1348.08 2326.88,1343.91 2325.83,1338.35C2314.55,1278.29 2318.27,1220.56 2336.87,1166.78C2337.93,1163.72 2340.13,1161.19 2343.02,1159.73C2355.16,1153.56 2368.87,1144.6 2383.38,1135.11C2423.3,1109.02 2468.56,1079.45 2516.52,1082.11C2546.98,1083.81 2573.4,1102.42 2583.81,1129.53C2596.14,1161.62 2590.88,1204.08 2568.17,1255.83C2587.2,1291.62 2582.53,1343.3 2555.13,1395.86C2545.02,1415.26 2525.54,1426.81 2504.88,1426.81Z" style="fill:rgb(0,0,114);fill-rule:nonzero;"/>
            <path d="M2334.92,1241.76C2370.84,1225.2 2416.78,1217.02 2452.05,1239.94C2455.73,1242.18 2452.73,1247.92 2448.79,1246.15C2414.14,1230.03 2376.15,1242.55 2345.4,1261.97C2331.43,1269.84 2320.39,1248.69 2334.92,1241.76Z" style="fill:rgb(0,0,114);fill-rule:nonzero;"/>
            <path d="M2249.39,1193.4C2187.73,1163.69 2132.41,1121.55 2088.889,1111.41C2073.62,1107.85 2057.26,1110.74 2045.51,1121.13C2010.08,1152.48 2022.94,1227.71 2048.179,1281.36C2035.82,1342.76 2055.02,1396 2096.48,1417.81C2107.58,1423.66 2120.97,1423.73 2132.1,1417.94C2178.75,1393.64 2223.27,1352.05 2255.6,1308.43L2249.39,1193.4Z" style="fill:rgb(255,120,175);fill-rule:nonzero;"/>
            <path d="M2053.27,1122.66C2061.159,1113.39 2075.83,1115.66 2087.51,1119.12C2108.7,1125.41 2129.96,1133.19 2147.14,1147.1C2164.32,1161 2176.98,1182.08 2175.86,1204.15C2174.75,1226.23 2156.92,1247.71 2134.83,1248.38C2155.47,1244.53 2176.69,1259.09 2184.51,1278.57C2192.33,1298.06 2188.55,1320.75 2178.77,1339.32C2167.27,1361.14 2147.48,1378.65 2124.08,1386.44C2100.69,1394.24 2073.94,1391.97 2052.679,1379.48C2061.81,1408.6 2098.63,1421.14 2128.29,1413.96C2157.95,1406.78 2181.85,1385.49 2204.41,1364.94C2220.74,1350.06 2237.07,1335.18 2253.39,1320.31C2217.01,1291.64 2203.36,1237.54 2221.8,1195.05C2222.85,1192.61 2224.03,1189.96 2223.32,1187.41C2222.8,1185.54 2221.37,1184.1 2219.98,1182.76C2194.82,1158.57 2164.03,1140.28 2130.76,1129.76" style="fill:rgb(237,67,144);fill-rule:nonzero;"/>
            <path d="M2076.45,1122.46C2067.79,1122.46 2059.72,1125.25 2053.79,1130.49C2025,1155.96 2035.24,1224.49 2059.49,1276.04C2060.629,1278.47 2060.96,1281.2 2060.429,1283.83C2049.28,1339.25 2065.71,1387.5 2102.3,1406.75C2109.84,1410.72 2118.83,1410.76 2126.32,1406.85C2167.41,1385.45 2209.69,1348.31 2242.87,1304.56L2237.3,1201.4C2215.2,1190.38 2194.27,1178.15 2173.96,1166.28C2141.43,1147.28 2110.71,1129.33 2086.06,1123.59C2082.83,1122.83 2079.6,1122.46 2076.45,1122.46ZM2114.43,1434.75C2106.27,1434.75 2098.1,1432.79 2090.659,1428.88C2044.96,1404.84 2023.41,1347.85 2035.15,1282.96C2008.47,1224 1997.96,1146.5 2037.23,1111.77C2051.36,1099.27 2071.74,1094.59 2091.73,1099.23C2120.06,1105.83 2152.37,1124.71 2186.57,1144.7C2208.49,1157.5 2231.14,1170.74 2254.81,1182.15C2258.92,1184.12 2261.62,1188.18 2261.87,1192.73L2268.08,1307.75C2268.23,1310.66 2267.37,1313.53 2265.64,1315.87C2229.89,1364.11 2183.32,1405.35 2137.87,1429.02C2130.54,1432.84 2122.49,1434.75 2114.43,1434.75Z" style="fill:rgb(0,0,114);fill-rule:nonzero;"/>
            <path d="M2248.19,1269.73C2221.05,1256.5 2190.75,1250.96 2160.53,1253.5C2150.23,1254.24 2139.88,1255.84 2129.48,1257.84C2126.54,1258.51 2125.06,1254.09 2127.82,1252.86C2157.75,1238.56 2192.26,1232.84 2225.19,1238.98C2236.36,1241.06 2247.34,1244.4 2257.71,1249.06C2271.34,1255.61 2262.09,1275.84 2248.19,1269.73Z" style="fill:rgb(0,0,114);fill-rule:nonzero;"/>
            <path d="M2350.32,1166.01C2332.09,1218.51 2325.93,1274.57 2338.12,1336.05C2315.75,1343.89 2293.85,1343.31 2272.42,1334.33C2247.79,1324.02 2230.34,1302 2223.89,1276.09C2199.1,1176.58 2251.4,1091.63 2350.32,1166.01Z" style="fill:rgb(255,120,175);fill-rule:nonzero;"/>
            <path d="M2239.06,1157.83C2255.89,1153.44 2275.96,1149.76 2288.85,1161.43C2297.66,1169.4 2300.04,1182.11 2301.49,1193.89C2303.43,1209.66 2304.6,1225.52 2305,1241.4C2305.47,1260.3 2304.56,1280.23 2294.63,1296.32C2284.69,1312.4 2262.91,1322.61 2246.19,1313.79C2266.29,1339.59 2305.39,1348.3 2334.54,1333.47C2323.91,1306.47 2322.99,1276.43 2327.24,1247.73C2331.49,1219.03 2340.69,1191.33 2349.85,1163.8C2336.04,1154.76 2322.01,1145.62 2306.3,1140.53C2290.6,1135.44 2272.74,1134.79 2258.12,1142.45C2256.75,1143.17 2254.85,1143.87 2253.86,1142.68C2252.87,1141.5 2256.12,1140.38 2255.48,1141.79" style="fill:rgb(237,67,144);fill-rule:nonzero;"/>
            <path d="M2281.97,1150.3C2273.11,1150.3 2265.15,1152.55 2258.28,1157.1C2232.43,1174.23 2223.28,1221.91 2236.01,1273.07C2241.67,1295.76 2257.08,1314.35 2277.25,1322.8C2292.63,1329.25 2307.94,1330.71 2323.8,1327.17C2315.04,1274.21 2318.91,1222.85 2335.55,1170.78C2315.73,1157.21 2297.49,1150.3 2281.97,1150.3ZM2307.16,1354.02C2293.8,1354.02 2280.57,1351.3 2267.58,1345.86C2240.18,1334.38 2219.31,1309.43 2211.76,1279.11C2196.26,1216.89 2209.41,1159.49 2244.47,1136.26C2261.76,1124.81 2299.48,1112.14 2357.83,1156.02C2362.17,1159.28 2363.91,1164.97 2362.13,1170.11C2343.21,1224.61 2339.37,1278.09 2350.38,1333.61C2351.59,1339.72 2348.13,1345.79 2342.25,1347.84C2330.5,1351.96 2318.78,1354.02 2307.16,1354.02Z" style="fill:rgb(0,0,114);fill-rule:nonzero;"/>
            <path d="M2255.4,1245.73C2255.27,1245.73 2255.14,1245.72 2255,1245.71C2248.75,1245.06 2245.27,1229.33 2247.22,1210.58C2249.13,1192.23 2255.54,1177.79 2261.67,1177.79C2261.8,1177.79 2261.94,1177.8 2262.07,1177.81C2268.32,1178.46 2271.8,1194.19 2269.85,1212.94C2267.94,1231.29 2261.53,1245.73 2255.4,1245.73Z" style="fill:rgb(255,201,223);fill-rule:nonzero;"/>
            <path d="M2071.71,1226.05C2063.84,1226.05 2057.409,1206.95 2057.34,1183.36C2057.26,1159.75 2063.58,1140.59 2071.45,1140.57L2071.46,1140.57C2079.32,1140.57 2085.75,1159.67 2085.83,1183.26C2085.909,1206.87 2079.59,1226.03 2071.72,1226.05L2071.71,1226.05Z" style="fill:rgb(255,201,223);fill-rule:nonzero;"/>
        </g>
    </g>
</svg>
